<svg xmlns="http://www.w3.org/2000/svg" xmlns:xlink="http://www.w3.org/1999/xlink" width="41.91mm" height="91.034mm" viewBox="4010 3034.6 165 358.4"><title></title><style type="text/css">
*[layerid="1"] {stroke:#FF0000;fill:#FF0000;}
*[layerid="2"] {stroke:#0000FF;fill:#0000FF;}
*[layerid="3"] {stroke:#FFCC00;fill:#FFCC00;}
*[layerid="4"] {stroke:#66CC33;fill:#66CC33;}
*[layerid="5"] {stroke:#808080;fill:#808080;}
*[layerid="6"] {stroke:#800000;fill:#800000;}
*[layerid="7"] {stroke:#800080;fill:#800080;stroke-opacity:0.7;fill-opacity:0.7;}
*[layerid="8"] {stroke:#AA00FF;fill:#AA00FF;stroke-opacity:0.7;fill-opacity:0.7;}
*[layerid="9"] {stroke:#6464FF;fill:#6464FF;}
*[layerid="10"] {stroke:#FF00FF;fill:#FF00FF;}
*[layerid="11"] {stroke:#C0C0C0;fill:#C0C0C0;}
*[layerid="12"] {stroke:#FFFFFF;fill:#FFFFFF;}
*[layerid="13"] {stroke:#33CC99;fill:#33CC99;}
*[layerid="14"] {stroke:#5555FF;fill:#5555FF;}
*[layerid="15"] {stroke:#F022F0;fill:#F022F0;}
*[layerid="19"] {stroke:#66CCFF;fill:#66CCFF;}
*[layerid="21"] {stroke:#999966;fill:#999966;}
*[layerid="22"] {stroke:#008000;fill:#008000;}
*[layerid="23"] {stroke:#00FF00;fill:#00FF00;}
*[layerid="24"] {stroke:#BC8E00;fill:#BC8E00;}
*[layerid="25"] {stroke:#70DBFA;fill:#70DBFA;}
*[layerid="26"] {stroke:#00CC66;fill:#00CC66;}
*[layerid="27"] {stroke:#9966FF;fill:#9966FF;}
*[layerid="28"] {stroke:#800080;fill:#800080;}
*[layerid="29"] {stroke:#008080;fill:#008080;}
*[layerid="30"] {stroke:#15935F;fill:#15935F;}
*[layerid="31"] {stroke:#000080;fill:#000080;}
*[layerid="32"] {stroke:#00B400;fill:#00B400;}
*[layerid="33"] {stroke:#2E4756;fill:#2E4756;}
*[layerid="34"] {stroke:#99842F;fill:#99842F;}
*[layerid="35"] {stroke:#FFFFAA;fill:#FFFFAA;}
*[layerid="36"] {stroke:#99842F;fill:#99842F;}
*[layerid="37"] {stroke:#2E4756;fill:#2E4756;}
*[layerid="38"] {stroke:#3535FF;fill:#3535FF;}
*[layerid="39"] {stroke:#8000BC;fill:#8000BC;}
*[layerid="40"] {stroke:#43AE5F;fill:#43AE5F;}
*[layerid="41"] {stroke:#C3ECCE;fill:#C3ECCE;}
*[layerid="42"] {stroke:#728978;fill:#728978;}
*[layerid="43"] {stroke:#39503F;fill:#39503F;}
*[layerid="44"] {stroke:#0C715D;fill:#0C715D;}
*[layerid="45"] {stroke:#5A8A80;fill:#5A8A80;}
*[layerid="46"] {stroke:#2B937E;fill:#2B937E;}
*[layerid="47"] {stroke:#23999D;fill:#23999D;}
*[layerid="48"] {stroke:#45B4E3;fill:#45B4E3;}
*[layerid="49"] {stroke:#215DA1;fill:#215DA1;}
*[layerid="50"] {stroke:#4564D7;fill:#4564D7;}
*[layerid="51"] {stroke:#6969E9;fill:#6969E9;}
*[layerid="52"] {stroke:#9069E9;fill:#9069E9;}
*[layerid="99"] {stroke:#00CCCC;fill:#00CCCC;stroke-opacity:0.6;fill-opacity:0.6;}
*[layerid="100"] {stroke:#CC9999;fill:#CC9999;}
*[layerid="101"] {stroke:#66FFCC;fill:#66FFCC;}
*[layerid="Hole"] {stroke:#222222;fill:#222222;}
*[layerid="DRCError"] {stroke:#FAD609;fill:#FAD609;}
*[fill="none"] {fill: none;}
*[stroke="none"] {stroke: none;}
path, polyline, polygon, line {stroke-linecap:round;}
g[c_partid="part_pad"][layerid="1"] ellipse:not([c_padid]) {fill:#FF0000;}
g[c_partid="part_pad"][layerid="1"]  polygon:not([c_padid]) {fill:#FF0000;}
g[c_partid="part_pad"][layerid="1"]  polyline:not([c_padid]) {stroke:#FF0000;}
g[c_partid="part_pad"][layerid="1"]  circle {fill:#FF0000;}
g[c_partid="part_pad"][layerid="2"]  ellipse:not([c_padid]) {fill:#0000FF;}
g[c_partid="part_pad"][layerid="2"]  polygon:not([c_padid]) {fill:#0000FF;}
g[c_partid="part_pad"][layerid="2"]  polyline:not([c_padid]) {stroke:#0000FF;}
g[c_partid="part_pad"][layerid="2"]  circle {fill:#0000FF;}
g[c_partid="part_pad"][layerid="11"]  ellipse:not([c_padid]) {fill:#C0C0C0;}
g[c_partid="part_pad"][layerid="11"]  polygon:not([c_padid]) {fill:#C0C0C0;}
g[c_partid="part_pad"][layerid="11"]  polyline:not([c_padid]) {stroke:#C0C0C0;}
g[c_partid="part_pad"][layerid="11"]  circle {fill:#C0C0C0;}
g[c_partid="part_pad"][layerid] > circle[c_padhole] {fill: #222222;}
g[c_partid="part_pad"][layerid] > polyline[c_padhole] {stroke:#222222;}
g[c_partid="part_via"][layerid] > * + circle {fill: #222222;}
g[c_partid="part_pad"] > polygon[c_padid] {stroke-linejoin: miter;stroke-miterlimit: 100;}
g[c_partid="part_hole"] > circle {fill: #222222;}path, polyline, polygon {stroke-linejoin:round;}
rect, circle, ellipse, polyline, line, polygon, path {shape-rendering:crispEdges;}
</style>
<rect x="4010" y="3034.6" width="165" height="358.4" fill="#000000" stroke="none"/><g id="g1" cpara="Contributor`travisbavar`sourceId`SOkCwpHZT`timeStamp`1472197241`package`TEENSY 3.5`BOM_Manufacturer Part`Teensy 3.5`link`https://www.pjrc.com/store/teensy36.html`spicePre`U`" c_transformList="" importFlag="0" xmlns="http://www.w3.org/2000/svg"><polyline points="4070 3053 4120 3053 4130 3063" stroke-width="1" c_shapetype="line" stroke-linecap="round" fill="none" layerid="1" net="GND" id="gge13081" /><polyline points="4064 3368 4064 3358 4068.5 3353.5 4131 3353.5 4136 3358.5 4136 3368.5" stroke-width="1" c_shapetype="line" stroke-linecap="round" fill="none" layerid="1" net="GND" id="gge13084" /><polyline points="4054 3368 4063.5 3377.5 4118.5 3377.5 4126 3370 4126 3369.5" stroke-width="1" c_shapetype="line" stroke-linecap="round" fill="none" layerid="1" net="3.3V" id="gge13087" /><polyline points="4078.69 3333.03 4078.69 3352.5" stroke-width="1" c_shapetype="line" stroke-linecap="round" fill="none" layerid="1" net="GND" id="gge13090" /><polyline points="4070 3063.5 4078.69 3063.5 4078.69 3313.85" stroke-width="1" c_shapetype="line" stroke-linecap="round" fill="none" layerid="1" net="MUTE" id="gge13093" /><polyline points="4130 3073 4130 3070 4118 3058 4048.5 3058 4048.5 3171.5 4070 3193" stroke-width="1" c_shapetype="line" stroke-linecap="round" fill="none" layerid="1" net="3.3V" id="gge13096" /><polyline points="4054 3368 4054 3209 4070 3193" stroke-width="1" c_shapetype="line" stroke-linecap="round" fill="none" layerid="1" net="3.3V" id="gge13099" /><polyline points="4110.173 3353.5 4110.173 3332.5 4110.645 3332.028 4142.185 3332.028" stroke-width="1" c_shapetype="line" stroke-linecap="round" fill="none" layerid="1" net="GND" id="gge13114" /><polyline points="4142.185 3312.343 4154.843 3312.343 4155 3312.5 4155 3286" stroke-width="1" c_shapetype="line" stroke-linecap="round" fill="none" layerid="1" net="SW2" id="gge13318" /><polyline points="4130 3063 4145.5 3078.5 4145.5 3292.5 4135.5 3302.5 4135.5 3332.028" stroke-width="1" c_shapetype="line" stroke-linecap="round" fill="none" layerid="1" net="GND" id="gge13117" /><polyline points="4130 3053 4155 3078 4155 3263" stroke-width="1" c_shapetype="line" stroke-linecap="round" fill="none" layerid="1" net="SW1" id="gge13312" /><g c_partid="part_pad" c_etype="pinpart" c_origin="4053.5,3368.5" layerid="11" number="1" net="3.3V" plated ="Y" c_shapetype="group" id="gge12937" locked="0" c_rotation="0" c_width="6" c_height="6" title="3.3V" c_shape="ELLIPSE" pasteExpansion="0" solderExpansion="0.4"><ellipse cx="4053.5" cy="3368.5" rx="3" ry="3" stroke-width="0" /><circle c_padhole="1" cx="4053.5" cy="3368.5" r="1.8" stroke-width="0" /></g><g c_partid="part_pad" c_etype="pinpart" c_origin="4064,3369" layerid="11" number="2" net="GND" plated ="Y" c_shapetype="group" id="gge12964" locked="0" c_rotation="0" c_width="6" c_height="6" title="GND" c_shape="ELLIPSE" pasteExpansion="0" solderExpansion="0.4"><ellipse cx="4064" cy="3369" rx="3" ry="3" stroke-width="0" /><circle c_padhole="1" cx="4064" cy="3369" r="1.8" stroke-width="0" /></g><g c_partid="part_pad" c_etype="pinpart" c_origin="4126,3369.5" layerid="11" number="3" net="3.3V" plated ="Y" c_shapetype="group" id="gge12991" locked="0" c_rotation="0" c_width="6" c_height="6" title="3.3V" c_shape="ELLIPSE" pasteExpansion="0" solderExpansion="0.4"><ellipse cx="4126" cy="3369.5" rx="3" ry="3" stroke-width="0" /><circle c_padhole="1" cx="4126" cy="3369.5" r="1.8" stroke-width="0" /></g><g c_partid="part_pad" c_etype="pinpart" c_origin="4136,3368.5" layerid="11" number="4" net="GND" plated ="Y" c_shapetype="group" id="gge13015" locked="0" c_rotation="0" c_width="6" c_height="6" title="GND" c_shape="ELLIPSE" pasteExpansion="0" solderExpansion="0.4"><ellipse cx="4136" cy="3368.5" rx="3" ry="3" stroke-width="0" /><circle c_padhole="1" cx="4136" cy="3368.5" r="1.8" stroke-width="0" /></g><g c_partid="part_pad" c_etype="pinpart" c_origin="4155,3286" layerid="11" number="6" net="SW2" plated ="Y" c_shapetype="group" id="gge13246" locked="0" c_rotation="0" c_width="6" c_height="6" title="SW2" c_shape="ELLIPSE" pasteExpansion="0" solderExpansion="0.4"><ellipse cx="4155" cy="3286" rx="3" ry="3" stroke-width="0" /><circle c_padhole="1" cx="4155" cy="3286" r="1.8" stroke-width="0" /></g><g c_partid="part_pad" c_etype="pinpart" c_origin="4155,3263" layerid="11" number="6" net="SW1" plated ="Y" c_shapetype="group" id="gge13297" locked="0" c_rotation="0" c_width="6" c_height="6" title="SW1" c_shape="ELLIPSE" pasteExpansion="0" solderExpansion="0.4"><ellipse cx="4155" cy="3263" rx="3" ry="3" stroke-width="0" /><circle c_padhole="1" cx="4155" cy="3263" r="1.8" stroke-width="0" /></g><g c_partid="part_pad" c_etype="pinpart" c_origin="4078.69,3333.03" layerid="11" number="1" net="GND" plated ="Y" c_shapetype="group" id="gge156" locked="0" c_rotation="90" c_width="6.2992" c_height="6.2992" title="GND" c_shape="ELLIPSE" pasteExpansion="0" solderExpansion="0.2"><ellipse cx="4078.69" cy="3333.03" rx="3.1496" ry="3.1496" stroke-width="0" /><circle c_padhole="1" cx="4078.69" cy="3333.03" r="1.9685" stroke-width="0" /></g><g c_partid="part_pad" c_etype="pinpart" c_origin="4078.69,3313.35" layerid="11" number="2" net="MUTE" plated ="Y" c_shapetype="group" id="gge171" locked="0" c_rotation="90" c_width="6.2992" c_height="6.2992" title="MUTE" c_shape="ELLIPSE" pasteExpansion="0" solderExpansion="0.2"><ellipse cx="4078.69" cy="3313.35" rx="3.1496" ry="3.1496" stroke-width="0" /><circle c_padhole="1" cx="4078.69" cy="3313.35" r="1.9685" stroke-width="0" /></g><g c_partid="part_pad" c_etype="pinpart" c_origin="4142.19,3312.34" layerid="11" number="1" net="SW2" plated ="Y" c_shapetype="group" id="gge207" locked="0" c_rotation="0" c_width="7.874" c_height="6" title="SW2" c_shape="OVAL" pasteExpansion="0" solderExpansion="0.2"><polyline points="4141.253 3312.34 4143.127 3312.34" stroke-width="6" /><circle c_padhole="1" cx="4142.185" cy="3312.3425" r="2.3622" stroke-width="0" /></g><g c_partid="part_pad" c_etype="pinpart" c_origin="4142.19,3332.03" layerid="11" number="2" net="GND" plated ="Y" c_shapetype="group" id="gge222" locked="0" c_rotation="0" c_width="7.874" c_height="6" title="GND" c_shape="OVAL" pasteExpansion="0" solderExpansion="0.2"><polyline points="4141.253 3332.03 4143.127 3332.03" stroke-width="6" /><circle c_padhole="1" cx="4142.185" cy="3332.0276" r="2.3622" stroke-width="0" /></g><g c_partid="part_pad" c_etype="pinpart" c_origin="4070,3053" layerid="11" number="1" net="GND" plated ="Y" c_shapetype="group" id="gge372" locked="0" c_rotation="270" c_width="6.5" c_height="6.5" title="GND" c_shape="ELLIPSE" pasteExpansion="0" solderExpansion="0.2"><ellipse cx="4070" cy="3053" rx="3.25" ry="3.25" stroke-width="0" /><circle c_padhole="1" cx="4070" cy="3053" r="1.9" stroke-width="0" /></g><g c_partid="part_pad" c_etype="pinpart" c_origin="4070,3063" layerid="11" number="2" net="MUTE" plated ="Y" c_shapetype="group" id="gge387" locked="0" c_rotation="270" c_width="6.5" c_height="6.5" title="MUTE" c_shape="ELLIPSE" pasteExpansion="0" solderExpansion="0.2"><ellipse cx="4070" cy="3063" rx="3.25" ry="3.25" stroke-width="0" /><circle c_padhole="1" cx="4070" cy="3063" r="1.9" stroke-width="0" /></g><g c_partid="part_pad" c_etype="pinpart" c_origin="4070,3073" layerid="11" number="3" net="" plated ="Y" c_shapetype="group" id="gge402" locked="0" c_rotation="270" c_width="6.5" c_height="6.5" title="" c_shape="ELLIPSE" pasteExpansion="0" solderExpansion="0.2"><ellipse cx="4070" cy="3073" rx="3.25" ry="3.25" stroke-width="0" /><circle c_padhole="1" cx="4070" cy="3073" r="1.9" stroke-width="0" /></g><g c_partid="part_pad" c_etype="pinpart" c_origin="4070,3083" layerid="11" number="4" net="" plated ="Y" c_shapetype="group" id="gge417" locked="0" c_rotation="270" c_width="6.5" c_height="6.5" title="" c_shape="ELLIPSE" pasteExpansion="0" solderExpansion="0.2"><ellipse cx="4070" cy="3083" rx="3.25" ry="3.25" stroke-width="0" /><circle c_padhole="1" cx="4070" cy="3083" r="1.9" stroke-width="0" /></g><g c_partid="part_pad" c_etype="pinpart" c_origin="4070,3093" layerid="11" number="5" net="" plated ="Y" c_shapetype="group" id="gge432" locked="0" c_rotation="270" c_width="6.5" c_height="6.5" title="" c_shape="ELLIPSE" pasteExpansion="0" solderExpansion="0.2"><ellipse cx="4070" cy="3093" rx="3.25" ry="3.25" stroke-width="0" /><circle c_padhole="1" cx="4070" cy="3093" r="1.9" stroke-width="0" /></g><g c_partid="part_pad" c_etype="pinpart" c_origin="4070,3103" layerid="11" number="6" net="" plated ="Y" c_shapetype="group" id="gge447" locked="0" c_rotation="270" c_width="6.5" c_height="6.5" title="" c_shape="ELLIPSE" pasteExpansion="0" solderExpansion="0.2"><ellipse cx="4070" cy="3103" rx="3.25" ry="3.25" stroke-width="0" /><circle c_padhole="1" cx="4070" cy="3103" r="1.9" stroke-width="0" /></g><g c_partid="part_pad" c_etype="pinpart" c_origin="4070,3113" layerid="11" number="7" net="" plated ="Y" c_shapetype="group" id="gge462" locked="0" c_rotation="270" c_width="6.5" c_height="6.5" title="" c_shape="ELLIPSE" pasteExpansion="0" solderExpansion="0.2"><ellipse cx="4070" cy="3113" rx="3.25" ry="3.25" stroke-width="0" /><circle c_padhole="1" cx="4070" cy="3113" r="1.9" stroke-width="0" /></g><g c_partid="part_pad" c_etype="pinpart" c_origin="4070,3123" layerid="11" number="8" net="" plated ="Y" c_shapetype="group" id="gge477" locked="0" c_rotation="270" c_width="6.5" c_height="6.5" title="" c_shape="ELLIPSE" pasteExpansion="0" solderExpansion="0.2"><ellipse cx="4070" cy="3123" rx="3.25" ry="3.25" stroke-width="0" /><circle c_padhole="1" cx="4070" cy="3123" r="1.9" stroke-width="0" /></g><g c_partid="part_pad" c_etype="pinpart" c_origin="4070,3133" layerid="11" number="9" net="" plated ="Y" c_shapetype="group" id="gge492" locked="0" c_rotation="270" c_width="6.5" c_height="6.5" title="" c_shape="ELLIPSE" pasteExpansion="0" solderExpansion="0.2"><ellipse cx="4070" cy="3133" rx="3.25" ry="3.25" stroke-width="0" /><circle c_padhole="1" cx="4070" cy="3133" r="1.9" stroke-width="0" /></g><g c_partid="part_pad" c_etype="pinpart" c_origin="4070,3143" layerid="11" number="10" net="" plated ="Y" c_shapetype="group" id="gge507" locked="0" c_rotation="270" c_width="6.5" c_height="6.5" title="" c_shape="ELLIPSE" pasteExpansion="0" solderExpansion="0.2"><ellipse cx="4070" cy="3143" rx="3.25" ry="3.25" stroke-width="0" /><circle c_padhole="1" cx="4070" cy="3143" r="1.9" stroke-width="0" /></g><g c_partid="part_pad" c_etype="pinpart" c_origin="4070,3153" layerid="11" number="11" net="" plated ="Y" c_shapetype="group" id="gge522" locked="0" c_rotation="270" c_width="6.5" c_height="6.5" title="" c_shape="ELLIPSE" pasteExpansion="0" solderExpansion="0.2"><ellipse cx="4070" cy="3153" rx="3.25" ry="3.25" stroke-width="0" /><circle c_padhole="1" cx="4070" cy="3153" r="1.9" stroke-width="0" /></g><g c_partid="part_pad" c_etype="pinpart" c_origin="4070,3163" layerid="11" number="12" net="" plated ="Y" c_shapetype="group" id="gge537" locked="0" c_rotation="270" c_width="6.5" c_height="6.5" title="" c_shape="ELLIPSE" pasteExpansion="0" solderExpansion="0.2"><ellipse cx="4070" cy="3163" rx="3.25" ry="3.25" stroke-width="0" /><circle c_padhole="1" cx="4070" cy="3163" r="1.9" stroke-width="0" /></g><g c_partid="part_pad" c_etype="pinpart" c_origin="4130,3163" layerid="11" number="36" net="" plated ="Y" c_shapetype="group" id="gge552" locked="0" c_rotation="270" c_width="6.5" c_height="6.5" title="" c_shape="ELLIPSE" pasteExpansion="0" solderExpansion="0.2"><ellipse cx="4130" cy="3163" rx="3.25" ry="3.25" stroke-width="0" /><circle c_padhole="1" cx="4130" cy="3163" r="1.9" stroke-width="0" /></g><g c_partid="part_pad" c_etype="pinpart" c_origin="4130,3153" layerid="11" number="35" net="" plated ="Y" c_shapetype="group" id="gge567" locked="0" c_rotation="270" c_width="6.5" c_height="6.5" title="" c_shape="ELLIPSE" pasteExpansion="0" solderExpansion="0.2"><ellipse cx="4130" cy="3153" rx="3.25" ry="3.25" stroke-width="0" /><circle c_padhole="1" cx="4130" cy="3153" r="1.9" stroke-width="0" /></g><g c_partid="part_pad" c_etype="pinpart" c_origin="4130,3143" layerid="11" number="34" net="" plated ="Y" c_shapetype="group" id="gge582" locked="0" c_rotation="270" c_width="6.5" c_height="6.5" title="" c_shape="ELLIPSE" pasteExpansion="0" solderExpansion="0.2"><ellipse cx="4130" cy="3143" rx="3.25" ry="3.25" stroke-width="0" /><circle c_padhole="1" cx="4130" cy="3143" r="1.9" stroke-width="0" /></g><g c_partid="part_pad" c_etype="pinpart" c_origin="4130,3133" layerid="11" number="33" net="" plated ="Y" c_shapetype="group" id="gge597" locked="0" c_rotation="270" c_width="6.5" c_height="6.5" title="" c_shape="ELLIPSE" pasteExpansion="0" solderExpansion="0.2"><ellipse cx="4130" cy="3133" rx="3.25" ry="3.25" stroke-width="0" /><circle c_padhole="1" cx="4130" cy="3133" r="1.9" stroke-width="0" /></g><g c_partid="part_pad" c_etype="pinpart" c_origin="4130,3123" layerid="11" number="32" net="" plated ="Y" c_shapetype="group" id="gge612" locked="0" c_rotation="270" c_width="6.5" c_height="6.5" title="" c_shape="ELLIPSE" pasteExpansion="0" solderExpansion="0.2"><ellipse cx="4130" cy="3123" rx="3.25" ry="3.25" stroke-width="0" /><circle c_padhole="1" cx="4130" cy="3123" r="1.9" stroke-width="0" /></g><g c_partid="part_pad" c_etype="pinpart" c_origin="4130,3113" layerid="11" number="31" net="" plated ="Y" c_shapetype="group" id="gge627" locked="0" c_rotation="270" c_width="6.5" c_height="6.5" title="" c_shape="ELLIPSE" pasteExpansion="0" solderExpansion="0.2"><ellipse cx="4130" cy="3113" rx="3.25" ry="3.25" stroke-width="0" /><circle c_padhole="1" cx="4130" cy="3113" r="1.9" stroke-width="0" /></g><g c_partid="part_pad" c_etype="pinpart" c_origin="4130,3103" layerid="11" number="30" net="" plated ="Y" c_shapetype="group" id="gge642" locked="0" c_rotation="270" c_width="6.5" c_height="6.5" title="" c_shape="ELLIPSE" pasteExpansion="0" solderExpansion="0.2"><ellipse cx="4130" cy="3103" rx="3.25" ry="3.25" stroke-width="0" /><circle c_padhole="1" cx="4130" cy="3103" r="1.9" stroke-width="0" /></g><g c_partid="part_pad" c_etype="pinpart" c_origin="4130,3093" layerid="11" number="29" net="" plated ="Y" c_shapetype="group" id="gge657" locked="0" c_rotation="270" c_width="6.5" c_height="6.5" title="" c_shape="ELLIPSE" pasteExpansion="0" solderExpansion="0.2"><ellipse cx="4130" cy="3093" rx="3.25" ry="3.25" stroke-width="0" /><circle c_padhole="1" cx="4130" cy="3093" r="1.9" stroke-width="0" /></g><g c_partid="part_pad" c_etype="pinpart" c_origin="4130,3083" layerid="11" number="28" net="" plated ="Y" c_shapetype="group" id="gge672" locked="0" c_rotation="270" c_width="6.5" c_height="6.5" title="" c_shape="ELLIPSE" pasteExpansion="0" solderExpansion="0.2"><ellipse cx="4130" cy="3083" rx="3.25" ry="3.25" stroke-width="0" /><circle c_padhole="1" cx="4130" cy="3083" r="1.9" stroke-width="0" /></g><g c_partid="part_pad" c_etype="pinpart" c_origin="4130,3073" layerid="11" number="27" net="3.3V" plated ="Y" c_shapetype="group" id="gge687" locked="0" c_rotation="270" c_width="6.5" c_height="6.5" title="3.3V" c_shape="ELLIPSE" pasteExpansion="0" solderExpansion="0.2"><ellipse cx="4130" cy="3073" rx="3.25" ry="3.25" stroke-width="0" /><circle c_padhole="1" cx="4130" cy="3073" r="1.9" stroke-width="0" /></g><g c_partid="part_pad" c_etype="pinpart" c_origin="4130,3063" layerid="11" number="26" net="GND" plated ="Y" c_shapetype="group" id="gge702" locked="0" c_rotation="270" c_width="6.5" c_height="6.5" title="GND" c_shape="ELLIPSE" pasteExpansion="0" solderExpansion="0.2"><ellipse cx="4130" cy="3063" rx="3.25" ry="3.25" stroke-width="0" /><circle c_padhole="1" cx="4130" cy="3063" r="1.9" stroke-width="0" /></g><g c_partid="part_pad" c_etype="pinpart" c_origin="4130,3053" layerid="11" number="25" net="SW1" plated ="Y" c_shapetype="group" id="gge717" locked="0" c_rotation="270" c_width="6.5" c_height="6.5" title="SW1" c_shape="ELLIPSE" pasteExpansion="0" solderExpansion="0.2"><ellipse cx="4130" cy="3053" rx="3.25" ry="3.25" stroke-width="0" /><circle c_padhole="1" cx="4130" cy="3053" r="1.9" stroke-width="0" /></g><g c_partid="part_pad" c_etype="pinpart" c_origin="4070,3173" layerid="11" number="13" net="" plated ="Y" c_shapetype="group" id="gge732" locked="0" c_rotation="270" c_width="6.5" c_height="6.5" title="" c_shape="ELLIPSE" pasteExpansion="0" solderExpansion="0.2"><ellipse cx="4070" cy="3173" rx="3.25" ry="3.25" stroke-width="0" /><circle c_padhole="1" cx="4070" cy="3173" r="1.9" stroke-width="0" /></g><g c_partid="part_pad" c_etype="pinpart" c_origin="4070,3183" layerid="11" number="14" net="" plated ="Y" c_shapetype="group" id="gge747" locked="0" c_rotation="270" c_width="6.5" c_height="6.5" title="" c_shape="ELLIPSE" pasteExpansion="0" solderExpansion="0.2"><ellipse cx="4070" cy="3183" rx="3.25" ry="3.25" stroke-width="0" /><circle c_padhole="1" cx="4070" cy="3183" r="1.9" stroke-width="0" /></g><g c_partid="part_pad" c_etype="pinpart" c_origin="4130,3173" layerid="11" number="37" net="" plated ="Y" c_shapetype="group" id="gge762" locked="0" c_rotation="270" c_width="6.5" c_height="6.5" title="" c_shape="ELLIPSE" pasteExpansion="0" solderExpansion="0.2"><ellipse cx="4130" cy="3173" rx="3.25" ry="3.25" stroke-width="0" /><circle c_padhole="1" cx="4130" cy="3173" r="1.9" stroke-width="0" /></g><g c_partid="part_pad" c_etype="pinpart" c_origin="4130,3183" layerid="11" number="38" net="" plated ="Y" c_shapetype="group" id="gge777" locked="0" c_rotation="270" c_width="6.5" c_height="6.5" title="" c_shape="ELLIPSE" pasteExpansion="0" solderExpansion="0.2"><ellipse cx="4130" cy="3183" rx="3.25" ry="3.25" stroke-width="0" /><circle c_padhole="1" cx="4130" cy="3183" r="1.9" stroke-width="0" /></g><g c_partid="part_pad" c_etype="pinpart" c_origin="4130,3283" layerid="11" number="48" net="" plated ="Y" c_shapetype="group" id="gge792" locked="0" c_rotation="270" c_width="6.5" c_height="6.5" title="" c_shape="ELLIPSE" pasteExpansion="0" solderExpansion="0.2"><ellipse cx="4130" cy="3283" rx="3.25" ry="3.25" stroke-width="0" /><circle c_padhole="1" cx="4130" cy="3283" r="1.9" stroke-width="0" /></g><g c_partid="part_pad" c_etype="pinpart" c_origin="4130,3273" layerid="11" number="47" net="" plated ="Y" c_shapetype="group" id="gge807" locked="0" c_rotation="270" c_width="6.5" c_height="6.5" title="" c_shape="ELLIPSE" pasteExpansion="0" solderExpansion="0.2"><ellipse cx="4130" cy="3273" rx="3.25" ry="3.25" stroke-width="0" /><circle c_padhole="1" cx="4130" cy="3273" r="1.9" stroke-width="0" /></g><g c_partid="part_pad" c_etype="pinpart" c_origin="4130,3263" layerid="11" number="46" net="" plated ="Y" c_shapetype="group" id="gge822" locked="0" c_rotation="270" c_width="6.5" c_height="6.5" title="" c_shape="ELLIPSE" pasteExpansion="0" solderExpansion="0.2"><ellipse cx="4130" cy="3263" rx="3.25" ry="3.25" stroke-width="0" /><circle c_padhole="1" cx="4130" cy="3263" r="1.9" stroke-width="0" /></g><g c_partid="part_pad" c_etype="pinpart" c_origin="4130,3253" layerid="11" number="45" net="" plated ="Y" c_shapetype="group" id="gge837" locked="0" c_rotation="270" c_width="6.5" c_height="6.5" title="" c_shape="ELLIPSE" pasteExpansion="0" solderExpansion="0.2"><ellipse cx="4130" cy="3253" rx="3.25" ry="3.25" stroke-width="0" /><circle c_padhole="1" cx="4130" cy="3253" r="1.9" stroke-width="0" /></g><g c_partid="part_pad" c_etype="pinpart" c_origin="4130,3243" layerid="11" number="44" net="" plated ="Y" c_shapetype="group" id="gge852" locked="0" c_rotation="270" c_width="6.5" c_height="6.5" title="" c_shape="ELLIPSE" pasteExpansion="0" solderExpansion="0.2"><ellipse cx="4130" cy="3243" rx="3.25" ry="3.25" stroke-width="0" /><circle c_padhole="1" cx="4130" cy="3243" r="1.9" stroke-width="0" /></g><g c_partid="part_pad" c_etype="pinpart" c_origin="4130,3233" layerid="11" number="43" net="" plated ="Y" c_shapetype="group" id="gge867" locked="0" c_rotation="270" c_width="6.5" c_height="6.5" title="" c_shape="ELLIPSE" pasteExpansion="0" solderExpansion="0.2"><ellipse cx="4130" cy="3233" rx="3.25" ry="3.25" stroke-width="0" /><circle c_padhole="1" cx="4130" cy="3233" r="1.9" stroke-width="0" /></g><g c_partid="part_pad" c_etype="pinpart" c_origin="4130,3223" layerid="11" number="42" net="" plated ="Y" c_shapetype="group" id="gge882" locked="0" c_rotation="270" c_width="6.5" c_height="6.5" title="" c_shape="ELLIPSE" pasteExpansion="0" solderExpansion="0.2"><ellipse cx="4130" cy="3223" rx="3.25" ry="3.25" stroke-width="0" /><circle c_padhole="1" cx="4130" cy="3223" r="1.9" stroke-width="0" /></g><g c_partid="part_pad" c_etype="pinpart" c_origin="4130,3213" layerid="11" number="41" net="" plated ="Y" c_shapetype="group" id="gge897" locked="0" c_rotation="270" c_width="6.5" c_height="6.5" title="" c_shape="ELLIPSE" pasteExpansion="0" solderExpansion="0.2"><ellipse cx="4130" cy="3213" rx="3.25" ry="3.25" stroke-width="0" /><circle c_padhole="1" cx="4130" cy="3213" r="1.9" stroke-width="0" /></g><g c_partid="part_pad" c_etype="pinpart" c_origin="4130,3203" layerid="11" number="40" net="" plated ="Y" c_shapetype="group" id="gge912" locked="0" c_rotation="270" c_width="6.5" c_height="6.5" title="" c_shape="ELLIPSE" pasteExpansion="0" solderExpansion="0.2"><ellipse cx="4130" cy="3203" rx="3.25" ry="3.25" stroke-width="0" /><circle c_padhole="1" cx="4130" cy="3203" r="1.9" stroke-width="0" /></g><g c_partid="part_pad" c_etype="pinpart" c_origin="4130,3193" layerid="11" number="39" net="" plated ="Y" c_shapetype="group" id="gge927" locked="0" c_rotation="270" c_width="6.5" c_height="6.5" title="" c_shape="ELLIPSE" pasteExpansion="0" solderExpansion="0.2"><ellipse cx="4130" cy="3193" rx="3.25" ry="3.25" stroke-width="0" /><circle c_padhole="1" cx="4130" cy="3193" r="1.9" stroke-width="0" /></g><g c_partid="part_pad" c_etype="pinpart" c_origin="4070,3283" layerid="11" number="24" net="" plated ="Y" c_shapetype="group" id="gge942" locked="0" c_rotation="270" c_width="6.5" c_height="6.5" title="" c_shape="ELLIPSE" pasteExpansion="0" solderExpansion="0.2"><ellipse cx="4070" cy="3283" rx="3.25" ry="3.25" stroke-width="0" /><circle c_padhole="1" cx="4070" cy="3283" r="1.9" stroke-width="0" /></g><g c_partid="part_pad" c_etype="pinpart" c_origin="4070,3273" layerid="11" number="23" net="" plated ="Y" c_shapetype="group" id="gge957" locked="0" c_rotation="270" c_width="6.5" c_height="6.5" title="" c_shape="ELLIPSE" pasteExpansion="0" solderExpansion="0.2"><ellipse cx="4070" cy="3273" rx="3.25" ry="3.25" stroke-width="0" /><circle c_padhole="1" cx="4070" cy="3273" r="1.9" stroke-width="0" /></g><g c_partid="part_pad" c_etype="pinpart" c_origin="4070,3263" layerid="11" number="22" net="" plated ="Y" c_shapetype="group" id="gge972" locked="0" c_rotation="270" c_width="6.5" c_height="6.5" title="" c_shape="ELLIPSE" pasteExpansion="0" solderExpansion="0.2"><ellipse cx="4070" cy="3263" rx="3.25" ry="3.25" stroke-width="0" /><circle c_padhole="1" cx="4070" cy="3263" r="1.9" stroke-width="0" /></g><g c_partid="part_pad" c_etype="pinpart" c_origin="4070,3253" layerid="11" number="21" net="" plated ="Y" c_shapetype="group" id="gge987" locked="0" c_rotation="270" c_width="6.5" c_height="6.5" title="" c_shape="ELLIPSE" pasteExpansion="0" solderExpansion="0.2"><ellipse cx="4070" cy="3253" rx="3.25" ry="3.25" stroke-width="0" /><circle c_padhole="1" cx="4070" cy="3253" r="1.9" stroke-width="0" /></g><g c_partid="part_pad" c_etype="pinpart" c_origin="4070,3243" layerid="11" number="20" net="" plated ="Y" c_shapetype="group" id="gge1002" locked="0" c_rotation="270" c_width="6.5" c_height="6.5" title="" c_shape="ELLIPSE" pasteExpansion="0" solderExpansion="0.2"><ellipse cx="4070" cy="3243" rx="3.25" ry="3.25" stroke-width="0" /><circle c_padhole="1" cx="4070" cy="3243" r="1.9" stroke-width="0" /></g><g c_partid="part_pad" c_etype="pinpart" c_origin="4070,3233" layerid="11" number="19" net="" plated ="Y" c_shapetype="group" id="gge1017" locked="0" c_rotation="270" c_width="6.5" c_height="6.5" title="" c_shape="ELLIPSE" pasteExpansion="0" solderExpansion="0.2"><ellipse cx="4070" cy="3233" rx="3.25" ry="3.25" stroke-width="0" /><circle c_padhole="1" cx="4070" cy="3233" r="1.9" stroke-width="0" /></g><g c_partid="part_pad" c_etype="pinpart" c_origin="4070,3223" layerid="11" number="18" net="" plated ="Y" c_shapetype="group" id="gge1032" locked="0" c_rotation="270" c_width="6.5" c_height="6.5" title="" c_shape="ELLIPSE" pasteExpansion="0" solderExpansion="0.2"><ellipse cx="4070" cy="3223" rx="3.25" ry="3.25" stroke-width="0" /><circle c_padhole="1" cx="4070" cy="3223" r="1.9" stroke-width="0" /></g><g c_partid="part_pad" c_etype="pinpart" c_origin="4070,3213" layerid="11" number="17" net="" plated ="Y" c_shapetype="group" id="gge1047" locked="0" c_rotation="270" c_width="6.5" c_height="6.5" title="" c_shape="ELLIPSE" pasteExpansion="0" solderExpansion="0.2"><ellipse cx="4070" cy="3213" rx="3.25" ry="3.25" stroke-width="0" /><circle c_padhole="1" cx="4070" cy="3213" r="1.9" stroke-width="0" /></g><g c_partid="part_pad" c_etype="pinpart" c_origin="4070,3203" layerid="11" number="16" net="" plated ="Y" c_shapetype="group" id="gge1062" locked="0" c_rotation="270" c_width="6.5" c_height="6.5" title="" c_shape="ELLIPSE" pasteExpansion="0" solderExpansion="0.2"><ellipse cx="4070" cy="3203" rx="3.25" ry="3.25" stroke-width="0" /><circle c_padhole="1" cx="4070" cy="3203" r="1.9" stroke-width="0" /></g><g c_partid="part_pad" c_etype="pinpart" c_origin="4070,3193" layerid="11" number="15" net="3.3V" plated ="Y" c_shapetype="group" id="gge1077" locked="0" c_rotation="270" c_width="6.5" c_height="6.5" title="3.3V" c_shape="ELLIPSE" pasteExpansion="0" solderExpansion="0.2"><ellipse cx="4070" cy="3193" rx="3.25" ry="3.25" stroke-width="0" /><circle c_padhole="1" cx="4070" cy="3193" r="1.9" stroke-width="0" /></g><polyline points="4066.878 3335 4066.5 3311 4090.5 3311 4090.5 3335 4066.878 3335" stroke-width="1" c_shapetype="line" stroke-linecap="round" fill="none" layerid="3" net="" id="gge153" /><polyline points="4122.5 3302.5 4161.87 3302.5 4161.87 3341.87 4122.5 3341.87 4122.5 3302.5" stroke-width="1" c_shapetype="line" stroke-linecap="round" fill="none" layerid="3" net="" id="gge204" /><polyline points="4135 3048 4135 3288" stroke-width="1" c_shapetype="line" stroke-linecap="round" fill="none" layerid="3" net="" id="gge255" /><polyline points="4135 3288 4065 3288" stroke-width="1" c_shapetype="line" stroke-linecap="round" fill="none" layerid="3" net="" id="gge258" /><polyline points="4065 3288 4065 3048" stroke-width="1" c_shapetype="line" stroke-linecap="round" fill="none" layerid="3" net="" id="gge261" /><polyline points="4065 3048 4135 3048" stroke-width="1" c_shapetype="line" stroke-linecap="round" fill="none" layerid="3" net="" id="gge264" /><polyline points="4108 3229 4092 3229" stroke-width="1" c_shapetype="line" stroke-linecap="round" fill="none" layerid="3" net="" id="gge267" /><polyline points="4092 3229 4092 3219" stroke-width="1" c_shapetype="line" stroke-linecap="round" fill="none" layerid="3" net="" id="gge270" /><polyline points="4092 3219 4108 3219" stroke-width="1" c_shapetype="line" stroke-linecap="round" fill="none" layerid="3" net="" id="gge273" /><polyline points="4108 3219 4108 3229" stroke-width="1" c_shapetype="line" stroke-linecap="round" fill="none" layerid="3" net="" id="gge276" /><polyline points="4098 3220 4102 3220" stroke-width="1" c_shapetype="line" stroke-linecap="round" fill="none" layerid="3" net="" id="gge279" /><polyline points="4098 3228 4102 3228" stroke-width="1" c_shapetype="line" stroke-linecap="round" fill="none" layerid="3" net="" id="gge282" /><polyline points="4096 3238 4125 3238 4125 3284 4075 3283.997 4075 3238 4096 3238" stroke-width="1" c_shapetype="line" stroke-linecap="round" fill="none" layerid="3" net="" id="gge285" /><polyline points="4126 3201 4126 3146 4074 3146 4074 3201 4126 3201" stroke-width="1" c_shapetype="line" stroke-linecap="round" fill="none" layerid="3" net="" id="gge288" /><polyline points="4086.6 3044.9 4112.2 3044.9 4114.9 3044.6 4113.8 3046.9 4113.8 3066.6 4084.6 3066.6 4084.6 3046.9 4083.5 3044.6 4086.6 3044.9" stroke-width="1" c_shapetype="line" stroke-linecap="round" fill="none" layerid="3" net="" id="gge291" /><polyline points="4112.6 3046.9 4085.8 3046.9" stroke-width="1" c_shapetype="line" stroke-linecap="round" fill="none" layerid="3" net="" id="gge294" /><g c_partid="part_pcbtext" c_origin="4148.5,3314.5" c_rotation="0" c_mirror="0" id="gge12799" layerid="3" c_shapetype="group" ><path c_fontSize="3" c_fontFamily="" c_text="V+" d="M 4148.5 3311.47 L 4149.59 3314.34 M 4150.68 3311.47 L 4149.59 3314.34 M 4152.81 3311.88 L 4152.81 3314.34 M 4151.58 3313.11 L 4154.04 3313.11" fill="none"  stroke-width="0.4016"  /></g><g c_partid="part_pcbtext" c_origin="4149,3334.5" c_rotation="0" c_mirror="0" id="gge12811" layerid="3" c_shapetype="group" ><path c_fontSize="3" c_fontFamily="" c_text="V-" d="M 4149 3331.47 L 4150.09 3334.34 M 4151.18 3331.47 L 4150.09 3334.34 M 4152.08 3333.11 L 4154.54 3333.11" fill="none"  stroke-width="0.4016"  /></g><g c_partid="part_pcbtext" c_origin="4049.5,3360" c_rotation="0" c_mirror="0" id="gge12859" layerid="3" c_shapetype="group" ><path c_fontSize="3" c_fontFamily="" c_text="3.3V" d="M 4049.77 3356.97 L 4051.27 3356.97 L 4050.45 3358.06 L 4050.86 3358.06 L 4051.14 3358.2 L 4051.27 3358.34 L 4051.41 3358.75 L 4051.41 3359.02 L 4051.27 3359.43 L 4051 3359.7 L 4050.59 3359.84 L 4050.18 3359.84 L 4049.77 3359.7 L 4049.64 3359.56 L 4049.5 3359.29 M 4052.45 3359.15 L 4052.31 3359.29 L 4052.45 3359.43 L 4052.58 3359.29 L 4052.45 3359.15 M 4053.75 3356.97 L 4055.25 3356.97 L 4054.44 3358.06 L 4054.85 3358.06 L 4055.12 3358.2 L 4055.25 3358.34 L 4055.39 3358.75 L 4055.39 3359.02 L 4055.25 3359.43 L 4054.98 3359.7 L 4054.57 3359.84 L 4054.16 3359.84 L 4053.75 3359.7 L 4053.62 3359.56 L 4053.48 3359.29 M 4056.29 3356.97 L 4057.38 3359.84 M 4058.47 3356.97 L 4057.38 3359.84" fill="none"  stroke-width="0.4016"  /></g><g c_partid="part_pcbtext" c_origin="4122,3361.5" c_rotation="0" c_mirror="0" id="gge12871" layerid="3" c_shapetype="group" ><path c_fontSize="3" c_fontFamily="" c_text="3.3V" d="M 4122.27 3358.47 L 4123.77 3358.47 L 4122.95 3359.56 L 4123.36 3359.56 L 4123.64 3359.7 L 4123.77 3359.84 L 4123.91 3360.25 L 4123.91 3360.52 L 4123.77 3360.93 L 4123.5 3361.2 L 4123.09 3361.34 L 4122.68 3361.34 L 4122.27 3361.2 L 4122.14 3361.06 L 4122 3360.79 M 4124.95 3360.65 L 4124.81 3360.79 L 4124.95 3360.93 L 4125.08 3360.79 L 4124.95 3360.65 M 4126.25 3358.47 L 4127.75 3358.47 L 4126.94 3359.56 L 4127.35 3359.56 L 4127.62 3359.7 L 4127.75 3359.84 L 4127.89 3360.25 L 4127.89 3360.52 L 4127.75 3360.93 L 4127.48 3361.2 L 4127.07 3361.34 L 4126.66 3361.34 L 4126.25 3361.2 L 4126.12 3361.06 L 4125.98 3360.79 M 4128.79 3358.47 L 4129.88 3361.34 M 4130.97 3358.47 L 4129.88 3361.34" fill="none"  stroke-width="0.4016"  /></g><g c_partid="part_pcbtext" c_origin="4061,3360" c_rotation="0" c_mirror="0" id="gge12883" layerid="3" c_shapetype="group" ><path c_fontSize="3" c_fontFamily="" c_text="GND" d="M 4063.05 3357.65 L 4062.91 3357.38 L 4062.64 3357.11 L 4062.36 3356.97 L 4061.82 3356.97 L 4061.55 3357.11 L 4061.27 3357.38 L 4061.14 3357.65 L 4061 3358.06 L 4061 3358.75 L 4061.14 3359.15 L 4061.27 3359.43 L 4061.55 3359.7 L 4061.82 3359.84 L 4062.36 3359.84 L 4062.64 3359.7 L 4062.91 3359.43 L 4063.05 3359.15 L 4063.05 3358.75 M 4062.36 3358.75 L 4063.05 3358.75 M 4063.95 3356.97 L 4063.95 3359.84 M 4063.95 3356.97 L 4065.85 3359.84 M 4065.85 3356.97 L 4065.85 3359.84 M 4066.75 3356.97 L 4066.75 3359.84 M 4066.75 3356.97 L 4067.71 3356.97 L 4068.12 3357.11 L 4068.39 3357.38 L 4068.53 3357.65 L 4068.66 3358.06 L 4068.66 3358.75 L 4068.53 3359.15 L 4068.39 3359.43 L 4068.12 3359.7 L 4067.71 3359.84 L 4066.75 3359.84" fill="none"  stroke-width="0.4016"  /></g><g c_partid="part_pcbtext" c_origin="4133,3361.5" c_rotation="0" c_mirror="0" id="gge12895" layerid="3" c_shapetype="group" ><path c_fontSize="3" c_fontFamily="" c_text="GND" d="M 4135.05 3359.15 L 4134.91 3358.88 L 4134.64 3358.61 L 4134.36 3358.47 L 4133.82 3358.47 L 4133.55 3358.61 L 4133.27 3358.88 L 4133.14 3359.15 L 4133 3359.56 L 4133 3360.25 L 4133.14 3360.65 L 4133.27 3360.93 L 4133.55 3361.2 L 4133.82 3361.34 L 4134.36 3361.34 L 4134.64 3361.2 L 4134.91 3360.93 L 4135.05 3360.65 L 4135.05 3360.25 M 4134.36 3360.25 L 4135.05 3360.25 M 4135.95 3358.47 L 4135.95 3361.34 M 4135.95 3358.47 L 4137.85 3361.34 M 4137.85 3358.47 L 4137.85 3361.34 M 4138.75 3358.47 L 4138.75 3361.34 M 4138.75 3358.47 L 4139.71 3358.47 L 4140.12 3358.61 L 4140.39 3358.88 L 4140.53 3359.15 L 4140.66 3359.56 L 4140.66 3360.25 L 4140.53 3360.65 L 4140.39 3360.93 L 4140.12 3361.2 L 4139.71 3361.34 L 4138.75 3361.34" fill="none"  stroke-width="0.4016"  /></g><g c_partid="part_pcbtext" c_origin="4078,3352.5" c_rotation="0" c_mirror="0" id="gge13177" layerid="3" c_shapetype="group" ><path c_fontSize="4.5" c_fontFamily="" c_text="OVEREAR V2.0" d="M 4079.23 3347.96 L 4078.82 3348.16 L 4078.41 3348.57 L 4078.2 3348.98 L 4078 3349.6 L 4078 3350.62 L 4078.2 3351.23 L 4078.41 3351.64 L 4078.82 3352.05 L 4079.23 3352.25 L 4080.05 3352.25 L 4080.45 3352.05 L 4080.86 3351.64 L 4081.07 3351.23 L 4081.27 3350.62 L 4081.27 3349.6 L 4081.07 3348.98 L 4080.86 3348.57 L 4080.45 3348.16 L 4080.05 3347.96 L 4079.23 3347.96 M 4082.62 3347.96 L 4084.26 3352.25 M 4085.9 3347.96 L 4084.26 3352.25 M 4087.25 3347.96 L 4087.25 3352.25 M 4087.25 3347.96 L 4089.9 3347.96 M 4087.25 3350 L 4088.88 3350 M 4087.25 3352.25 L 4089.9 3352.25 M 4091.25 3347.96 L 4091.25 3352.25 M 4091.25 3347.96 L 4093.1 3347.96 L 4093.71 3348.16 L 4093.91 3348.37 L 4094.12 3348.78 L 4094.12 3349.19 L 4093.91 3349.6 L 4093.71 3349.8 L 4093.1 3350 L 4091.25 3350 M 4092.69 3350 L 4094.12 3352.25 M 4095.47 3347.96 L 4095.47 3352.25 M 4095.47 3347.96 L 4098.13 3347.96 M 4095.47 3350 L 4097.1 3350 M 4095.47 3352.25 L 4098.13 3352.25 M 4101.11 3347.96 L 4099.48 3352.25 M 4101.11 3347.96 L 4102.75 3352.25 M 4100.09 3350.82 L 4102.14 3350.82 M 4104.1 3347.96 L 4104.1 3352.25 M 4104.1 3347.96 L 4105.94 3347.96 L 4106.55 3348.16 L 4106.76 3348.37 L 4106.96 3348.78 L 4106.96 3349.19 L 4106.76 3349.6 L 4106.55 3349.8 L 4105.94 3350 L 4104.1 3350 M 4105.53 3350 L 4106.96 3352.25 M 4111.46 3347.96 L 4113.1 3352.25 M 4114.74 3347.96 L 4113.1 3352.25 M 4116.29 3348.98 L 4116.29 3348.78 L 4116.5 3348.37 L 4116.7 3348.16 L 4117.11 3347.96 L 4117.93 3347.96 L 4118.34 3348.16 L 4118.54 3348.37 L 4118.75 3348.78 L 4118.75 3349.19 L 4118.54 3349.6 L 4118.13 3350.21 L 4116.09 3352.25 L 4118.95 3352.25 M 4120.5 3351.23 L 4120.3 3351.44 L 4120.5 3351.64 L 4120.71 3351.44 L 4120.5 3351.23 M 4123.29 3347.96 L 4122.67 3348.16 L 4122.26 3348.78 L 4122.06 3349.8 L 4122.06 3350.41 L 4122.26 3351.44 L 4122.67 3352.05 L 4123.29 3352.25 L 4123.7 3352.25 L 4124.31 3352.05 L 4124.72 3351.44 L 4124.92 3350.41 L 4124.92 3349.8 L 4124.72 3348.78 L 4124.31 3348.16 L 4123.7 3347.96 L 4123.29 3347.96" fill="none"  stroke-width="0.5984"  /></g><g c_partid="part_pcbtext" c_origin="4158.5,3266.5" c_rotation="-90" c_mirror="0" id="gge13330" layerid="3" c_shapetype="group" ><path c_fontSize="3" c_fontFamily="" c_text="SWITCH" d="M 4161.12 3268.41 L 4161.39 3268.14 L 4161.53 3267.73 L 4161.53 3267.18 L 4161.39 3266.77 L 4161.12 3266.5 L 4160.85 3266.5 L 4160.57 3266.64 L 4160.44 3266.77 L 4160.3 3267.05 L 4160.03 3267.86 L 4159.89 3268.14 L 4159.75 3268.27 L 4159.48 3268.41 L 4159.07 3268.41 L 4158.8 3268.14 L 4158.66 3267.73 L 4158.66 3267.18 L 4158.8 3266.77 L 4159.07 3266.5 M 4161.53 3269.31 L 4158.66 3269.99 M 4161.53 3270.67 L 4158.66 3269.99 M 4161.53 3270.67 L 4158.66 3271.35 M 4161.53 3272.04 L 4158.66 3271.35 M 4161.53 3272.94 L 4158.66 3272.94 M 4161.53 3274.79 L 4158.66 3274.79 M 4161.53 3273.84 L 4161.53 3275.75 M 4160.85 3278.69 L 4161.12 3278.55 L 4161.39 3278.28 L 4161.53 3278.01 L 4161.53 3277.46 L 4161.39 3277.19 L 4161.12 3276.92 L 4160.85 3276.78 L 4160.44 3276.65 L 4159.75 3276.65 L 4159.35 3276.78 L 4159.07 3276.92 L 4158.8 3277.19 L 4158.66 3277.46 L 4158.66 3278.01 L 4158.8 3278.28 L 4159.07 3278.55 L 4159.35 3278.69 M 4161.53 3279.59 L 4158.66 3279.59 M 4161.53 3281.5 L 4158.66 3281.5 M 4160.16 3279.59 L 4160.16 3281.5" fill="none"  stroke-width="0.4016"  /></g><g c_partid="part_pcbtext" c_origin="4077.5,3320.5" c_rotation="0" c_mirror="0" id="gge13141" layerid="3" c_shapetype="group" ><path c_fontSize="3" c_fontFamily="" c_text="PIN 0" d="M 4077.5 3317.47 L 4077.5 3320.34 M 4077.5 3317.47 L 4078.73 3317.47 L 4079.14 3317.61 L 4079.27 3317.75 L 4079.41 3318.02 L 4079.41 3318.43 L 4079.27 3318.7 L 4079.14 3318.84 L 4078.73 3318.97 L 4077.5 3318.97 M 4080.31 3317.47 L 4080.31 3320.34 M 4081.21 3317.47 L 4081.21 3320.34 M 4081.21 3317.47 L 4083.12 3320.34 M 4083.12 3317.47 L 4083.12 3320.34 M 4086.94 3317.47 L 4086.53 3317.61 L 4086.25 3318.02 L 4086.12 3318.7 L 4086.12 3319.11 L 4086.25 3319.79 L 4086.53 3320.2 L 4086.94 3320.34 L 4087.21 3320.34 L 4087.62 3320.2 L 4087.89 3319.79 L 4088.03 3319.11 L 4088.03 3318.7 L 4087.89 3318.02 L 4087.62 3317.61 L 4087.21 3317.47 L 4086.94 3317.47" fill="none"  stroke-width="0.4016"  /></g><g c_partid="part_pcbtext" c_origin="4080,3329.5" c_rotation="0" c_mirror="0" id="gge13153" layerid="3" c_shapetype="group" ><path c_fontSize="3" c_fontFamily="" c_text="GND" d="M 4082.05 3327.15 L 4081.91 3326.88 L 4081.64 3326.61 L 4081.36 3326.47 L 4080.82 3326.47 L 4080.55 3326.61 L 4080.27 3326.88 L 4080.14 3327.15 L 4080 3327.56 L 4080 3328.25 L 4080.14 3328.65 L 4080.27 3328.93 L 4080.55 3329.2 L 4080.82 3329.34 L 4081.36 3329.34 L 4081.64 3329.2 L 4081.91 3328.93 L 4082.05 3328.65 L 4082.05 3328.25 M 4081.36 3328.25 L 4082.05 3328.25 M 4082.95 3326.47 L 4082.95 3329.34 M 4082.95 3326.47 L 4084.85 3329.34 M 4084.85 3326.47 L 4084.85 3329.34 M 4085.75 3326.47 L 4085.75 3329.34 M 4085.75 3326.47 L 4086.71 3326.47 L 4087.12 3326.61 L 4087.39 3326.88 L 4087.53 3327.15 L 4087.66 3327.56 L 4087.66 3328.25 L 4087.53 3328.65 L 4087.39 3328.93 L 4087.12 3329.2 L 4086.71 3329.34 L 4085.75 3329.34" fill="none"  stroke-width="0.4016"  /></g><g c_partid="part_pcbtext" c_origin="4058.5,3324" c_rotation="90" c_mirror="0" id="gge141" layerid="3" c_shapetype="group" display="none"><path c_fontSize="4.5" c_fontFamily="" c_text="Mute Button" d="M 4053.96 3324 L 4058.25 3324 M 4053.96 3324 L 4058.25 3322.36 M 4053.96 3320.73 L 4058.25 3322.36 M 4053.96 3320.73 L 4058.25 3320.73 M 4055.39 3319.38 L 4057.44 3319.38 L 4058.05 3319.17 L 4058.25 3318.76 L 4058.25 3318.15 L 4058.05 3317.74 L 4057.44 3317.13 M 4055.39 3317.13 L 4058.25 3317.13 M 4053.96 3315.16 L 4057.44 3315.16 L 4058.05 3314.96 L 4058.25 3314.55 L 4058.25 3314.14 M 4055.39 3315.78 L 4055.39 3314.35 M 4056.62 3312.79 L 4056.62 3310.34 L 4056.21 3310.34 L 4055.8 3310.54 L 4055.6 3310.75 L 4055.39 3311.15 L 4055.39 3311.77 L 4055.6 3312.18 L 4056 3312.59 L 4056.62 3312.79 L 4057.03 3312.79 L 4057.64 3312.59 L 4058.05 3312.18 L 4058.25 3311.77 L 4058.25 3311.15 L 4058.05 3310.75 L 4057.64 3310.34 M 4053.96 3305.84 L 4058.25 3305.84 M 4053.96 3305.84 L 4053.96 3304 L 4054.16 3303.38 L 4054.37 3303.18 L 4054.78 3302.97 L 4055.19 3302.97 L 4055.6 3303.18 L 4055.8 3303.38 L 4056 3304 M 4056 3305.84 L 4056 3304 L 4056.21 3303.38 L 4056.41 3303.18 L 4056.82 3302.97 L 4057.44 3302.97 L 4057.85 3303.18 L 4058.05 3303.38 L 4058.25 3304 L 4058.25 3305.84 M 4055.39 3301.62 L 4057.44 3301.62 L 4058.05 3301.42 L 4058.25 3301.01 L 4058.25 3300.4 L 4058.05 3299.99 L 4057.44 3299.37 M 4055.39 3299.37 L 4058.25 3299.37 M 4053.96 3297.41 L 4057.44 3297.41 L 4058.05 3297.2 L 4058.25 3296.8 L 4058.25 3296.39 M 4055.39 3298.02 L 4055.39 3296.59 M 4053.96 3294.42 L 4057.44 3294.42 L 4058.05 3294.22 L 4058.25 3293.81 L 4058.25 3293.4 M 4055.39 3295.04 L 4055.39 3293.6 M 4055.39 3291.03 L 4055.6 3291.44 L 4056 3291.85 L 4056.62 3292.05 L 4057.03 3292.05 L 4057.64 3291.85 L 4058.05 3291.44 L 4058.25 3291.03 L 4058.25 3290.41 L 4058.05 3290 L 4057.64 3289.6 L 4057.03 3289.39 L 4056.62 3289.39 L 4056 3289.6 L 4055.6 3290 L 4055.39 3290.41 L 4055.39 3291.03 M 4055.39 3288.04 L 4058.25 3288.04 M 4056.21 3288.04 L 4055.6 3287.43 L 4055.39 3287.02 L 4055.39 3286.4 L 4055.6 3286 L 4056.21 3285.79 L 4058.25 3285.79" fill="none"  stroke-width="0.6"  /></g><g c_partid="part_pcbtext" c_origin="4070.5,3309" c_rotation="0" c_mirror="0" id="gge147" layerid="3" c_shapetype="group" ><path c_fontSize="4.5" c_fontFamily="" c_text="MUTE" d="M 4070.5 3304.46 L 4070.5 3308.75 M 4070.5 3304.46 L 4072.14 3308.75 M 4073.77 3304.46 L 4072.14 3308.75 M 4073.77 3304.46 L 4073.77 3308.75 M 4075.12 3304.46 L 4075.12 3307.53 L 4075.33 3308.14 L 4075.74 3308.55 L 4076.35 3308.75 L 4076.76 3308.75 L 4077.37 3308.55 L 4077.78 3308.14 L 4077.99 3307.53 L 4077.99 3304.46 M 4080.77 3304.46 L 4080.77 3308.75 M 4079.34 3304.46 L 4082.2 3304.46 M 4083.55 3304.46 L 4083.55 3308.75 M 4083.55 3304.46 L 4086.21 3304.46 M 4083.55 3306.5 L 4085.19 3306.5 M 4083.55 3308.75 L 4086.21 3308.75" fill="none"  stroke-width="0.5984" c_note="note_pre" /></g><g c_partid="part_pcbtext" c_origin="4141.81,3292.49" c_rotation="0" c_mirror="0" id="gge192" layerid="3" c_shapetype="group" display="none"><path c_fontSize="4.5" c_fontFamily="" c_text="2 pin Screw Terminal" d="M 4142.0057 3288.971 L 4142.0057 3288.771 L 4142.2157 3288.361 L 4142.4157 3288.151 L 4142.8257 3287.951 L 4143.6457 3287.951 L 4144.0557 3288.151 L 4144.2557 3288.361 L 4144.4657 3288.771 L 4144.4657 3289.181 L 4144.2557 3289.591 L 4143.8557 3290.201 L 4141.8057 3292.241 L 4144.6657 3292.241 M 4149.1657 3289.381 L 4149.1657 3293.681 M 4149.1657 3289.991 L 4149.5757 3289.591 L 4149.9857 3289.381 L 4150.6057 3289.381 L 4151.0057 3289.591 L 4151.4157 3289.991 L 4151.6257 3290.611 L 4151.6257 3291.021 L 4151.4157 3291.631 L 4151.0057 3292.041 L 4150.6057 3292.241 L 4149.9857 3292.241 L 4149.5757 3292.041 L 4149.1657 3291.631 M 4152.9757 3287.951 L 4153.1757 3288.151 L 4153.3857 3287.951 L 4153.1757 3287.741 L 4152.9757 3287.951 M 4153.1757 3289.381 L 4153.1757 3292.241 M 4154.7357 3289.381 L 4154.7357 3292.241 M 4154.7357 3290.201 L 4155.3457 3289.591 L 4155.7557 3289.381 L 4156.3657 3289.381 L 4156.7757 3289.591 L 4156.9857 3290.201 L 4156.9857 3292.241 M 4164.3457 3288.561 L 4163.9357 3288.151 L 4163.3257 3287.951 L 4162.5057 3287.951 L 4161.8957 3288.151 L 4161.4857 3288.561 L 4161.4857 3288.971 L 4161.6857 3289.381 L 4161.8957 3289.591 L 4162.3057 3289.791 L 4163.5257 3290.201 L 4163.9357 3290.401 L 4164.1457 3290.611 L 4164.3457 3291.021 L 4164.3457 3291.631 L 4163.9357 3292.041 L 4163.3257 3292.241 L 4162.5057 3292.241 L 4161.8957 3292.041 L 4161.4857 3291.631 M 4168.1557 3289.991 L 4167.7457 3289.591 L 4167.3357 3289.381 L 4166.7157 3289.381 L 4166.3057 3289.591 L 4165.9057 3289.991 L 4165.6957 3290.611 L 4165.6957 3291.021 L 4165.9057 3291.631 L 4166.3057 3292.041 L 4166.7157 3292.241 L 4167.3357 3292.241 L 4167.7457 3292.041 L 4168.1557 3291.631 M 4169.5057 3289.381 L 4169.5057 3292.241 M 4169.5057 3290.611 L 4169.7057 3289.991 L 4170.1157 3289.591 L 4170.5257 3289.381 L 4171.1357 3289.381 M 4172.4857 3290.611 L 4174.9457 3290.611 L 4174.9457 3290.201 L 4174.7357 3289.791 L 4174.5357 3289.591 L 4174.1257 3289.381 L 4173.5057 3289.381 L 4173.1057 3289.591 L 4172.6957 3289.991 L 4172.4857 3290.611 L 4172.4857 3291.021 L 4172.6957 3291.631 L 4173.1057 3292.041 L 4173.5057 3292.241 L 4174.1257 3292.241 L 4174.5357 3292.041 L 4174.9457 3291.631 M 4176.2957 3289.381 L 4177.1057 3292.241 M 4177.9257 3289.381 L 4177.1057 3292.241 M 4177.9257 3289.381 L 4178.7457 3292.241 M 4179.5657 3289.381 L 4178.7457 3292.241 M 4185.4957 3287.951 L 4185.4957 3292.241 M 4184.0657 3287.951 L 4186.9257 3287.951 M 4188.2757 3290.611 L 4190.7357 3290.611 L 4190.7357 3290.201 L 4190.5257 3289.791 L 4190.3257 3289.591 L 4189.9157 3289.381 L 4189.3057 3289.381 L 4188.8957 3289.591 L 4188.4857 3289.991 L 4188.2757 3290.611 L 4188.2757 3291.021 L 4188.4857 3291.631 L 4188.8957 3292.041 L 4189.3057 3292.241 L 4189.9157 3292.241 L 4190.3257 3292.041 L 4190.7357 3291.631 M 4192.0857 3289.381 L 4192.0857 3292.241 M 4192.0857 3290.611 L 4192.2857 3289.991 L 4192.6957 3289.591 L 4193.1057 3289.381 L 4193.7157 3289.381 M 4195.0657 3289.381 L 4195.0657 3292.241 M 4195.0657 3290.201 L 4195.6857 3289.591 L 4196.0957 3289.381 L 4196.7057 3289.381 L 4197.1157 3289.591 L 4197.3157 3290.201 L 4197.3157 3292.241 M 4197.3157 3290.201 L 4197.9357 3289.591 L 4198.3457 3289.381 L 4198.9557 3289.381 L 4199.3657 3289.591 L 4199.5657 3290.201 L 4199.5657 3292.241 M 4200.9157 3287.951 L 4201.1257 3288.151 L 4201.3257 3287.951 L 4201.1257 3287.741 L 4200.9157 3287.951 M 4201.1257 3289.381 L 4201.1257 3292.241 M 4202.6757 3289.381 L 4202.6757 3292.241 M 4202.6757 3290.201 L 4203.2957 3289.591 L 4203.7057 3289.381 L 4204.3157 3289.381 L 4204.7257 3289.591 L 4204.9257 3290.201 L 4204.9257 3292.241 M 4208.7357 3289.381 L 4208.7357 3292.241 M 4208.7357 3289.991 L 4208.3257 3289.591 L 4207.9157 3289.381 L 4207.3057 3289.381 L 4206.8957 3289.591 L 4206.4857 3289.991 L 4206.2757 3290.611 L 4206.2757 3291.021 L 4206.4857 3291.631 L 4206.8957 3292.041 L 4207.3057 3292.241 L 4207.9157 3292.241 L 4208.3257 3292.041 L 4208.7357 3291.631 M 4210.0857 3287.951 L 4210.0857 3292.241" fill="none"  stroke-width="0.6"  /></g><g c_partid="part_pcbtext" c_origin="4129,3300.5" c_rotation="0" c_mirror="0" id="gge198" layerid="3" c_shapetype="group" ><path c_fontSize="4.5" c_fontFamily="" c_text="SCWTERM" d="M 4131.86 3296.57 L 4131.45 3296.16 L 4130.84 3295.96 L 4130.02 3295.96 L 4129.41 3296.16 L 4129 3296.57 L 4129 3296.98 L 4129.2 3297.39 L 4129.41 3297.6 L 4129.82 3297.8 L 4131.05 3298.21 L 4131.45 3298.41 L 4131.66 3298.62 L 4131.86 3299.03 L 4131.86 3299.64 L 4131.45 3300.05 L 4130.84 3300.25 L 4130.02 3300.25 L 4129.41 3300.05 L 4129 3299.64 M 4136.28 3296.98 L 4136.08 3296.57 L 4135.67 3296.16 L 4135.26 3295.96 L 4134.44 3295.96 L 4134.03 3296.16 L 4133.62 3296.57 L 4133.42 3296.98 L 4133.21 3297.6 L 4133.21 3298.62 L 4133.42 3299.23 L 4133.62 3299.64 L 4134.03 3300.05 L 4134.44 3300.25 L 4135.26 3300.25 L 4135.67 3300.05 L 4136.08 3299.64 L 4136.28 3299.23 M 4137.63 3295.96 L 4138.65 3300.25 M 4139.68 3295.96 L 4138.65 3300.25 M 4139.68 3295.96 L 4140.7 3300.25 M 4141.72 3295.96 L 4140.7 3300.25 M 4144.5 3295.96 L 4144.5 3300.25 M 4143.07 3295.96 L 4145.94 3295.96 M 4147.29 3295.96 L 4147.29 3300.25 M 4147.29 3295.96 L 4149.95 3295.96 M 4147.29 3298 L 4148.92 3298 M 4147.29 3300.25 L 4149.95 3300.25 M 4151.3 3295.96 L 4151.3 3300.25 M 4151.3 3295.96 L 4153.14 3295.96 L 4153.75 3296.16 L 4153.95 3296.37 L 4154.16 3296.78 L 4154.16 3297.19 L 4153.95 3297.6 L 4153.75 3297.8 L 4153.14 3298 L 4151.3 3298 M 4152.73 3298 L 4154.16 3300.25 M 4155.51 3295.96 L 4155.51 3300.25 M 4155.51 3295.96 L 4157.15 3300.25 M 4158.78 3295.96 L 4157.15 3300.25 M 4158.78 3295.96 L 4158.78 3300.25" fill="none"  stroke-width="0.6" c_note="note_pre" /></g><g c_partid="part_pcbtext" c_origin="4161.35,3201.02" c_rotation="90" c_mirror="0" id="gge243" layerid="3" c_shapetype="group" display="none"><path c_fontSize="4.5" c_fontFamily="" c_text="Teensy 3.5" d="M 4156.8101 3199.59 L 4161.1001 3199.59 M 4156.8101 3201.02 L 4156.8101 3198.16 M 4159.4701 3196.81 L 4159.4701 3194.35 L 4159.0601 3194.35 L 4158.6501 3194.56 L 4158.4501 3194.76 L 4158.2401 3195.17 L 4158.2401 3195.78 L 4158.4501 3196.19 L 4158.8501 3196.6 L 4159.4701 3196.81 L 4159.8801 3196.81 L 4160.4901 3196.6 L 4160.9001 3196.19 L 4161.1001 3195.78 L 4161.1001 3195.17 L 4160.9001 3194.76 L 4160.4901 3194.35 M 4159.4701 3193 L 4159.4701 3190.55 L 4159.0601 3190.55 L 4158.6501 3190.75 L 4158.4501 3190.96 L 4158.2401 3191.37 L 4158.2401 3191.98 L 4158.4501 3192.39 L 4158.8501 3192.8 L 4159.4701 3193 L 4159.8801 3193 L 4160.4901 3192.8 L 4160.9001 3192.39 L 4161.1001 3191.98 L 4161.1001 3191.37 L 4160.9001 3190.96 L 4160.4901 3190.55 M 4158.2401 3189.2 L 4161.1001 3189.2 M 4159.0601 3189.2 L 4158.4501 3188.58 L 4158.2401 3188.17 L 4158.2401 3187.56 L 4158.4501 3187.15 L 4159.0601 3186.95 L 4161.1001 3186.95 M 4158.8501 3183.35 L 4158.4501 3183.55 L 4158.2401 3184.17 L 4158.2401 3184.78 L 4158.4501 3185.39 L 4158.8501 3185.6 L 4159.2601 3185.39 L 4159.4701 3184.98 L 4159.6701 3183.96 L 4159.8801 3183.55 L 4160.2901 3183.35 L 4160.4901 3183.35 L 4160.9001 3183.55 L 4161.1001 3184.17 L 4161.1001 3184.78 L 4160.9001 3185.39 L 4160.4901 3185.6 M 4158.2401 3181.79 L 4161.1001 3180.57 M 4158.2401 3179.34 L 4161.1001 3180.57 L 4161.9201 3180.97 L 4162.3301 3181.38 L 4162.5401 3181.79 L 4162.5401 3182 M 4156.8101 3174.43 L 4156.8101 3172.18 L 4158.4501 3173.41 L 4158.4501 3172.79 L 4158.6501 3172.38 L 4158.8501 3172.18 L 4159.4701 3171.97 L 4159.8801 3171.97 L 4160.4901 3172.18 L 4160.9001 3172.59 L 4161.1001 3173.2 L 4161.1001 3173.82 L 4160.9001 3174.43 L 4160.7001 3174.63 L 4160.2901 3174.84 M 4160.0801 3170.42 L 4160.2901 3170.62 L 4160.4901 3170.42 L 4160.2901 3170.22 L 4160.0801 3170.42 M 4156.8101 3166.41 L 4156.8101 3168.46 L 4158.6501 3168.66 L 4158.4501 3168.46 L 4158.2401 3167.84 L 4158.2401 3167.23 L 4158.4501 3166.62 L 4158.8501 3166.21 L 4159.4701 3166 L 4159.8801 3166 L 4160.4901 3166.21 L 4160.9001 3166.62 L 4161.1001 3167.23 L 4161.1001 3167.84 L 4160.9001 3168.46 L 4160.7001 3168.66 L 4160.2901 3168.87" fill="none"  stroke-width="0.6"  /></g><g c_partid="part_pcbtext" c_origin="4151,3166" c_rotation="270" c_mirror="0" id="gge249" layerid="3" c_shapetype="group" ><path c_fontSize="4.5" c_fontFamily="" c_text="TEENSY" d="M 4155.54 3167.43 L 4151.25 3167.43 M 4155.54 3166 L 4155.54 3168.86 M 4155.54 3170.21 L 4151.25 3170.21 M 4155.54 3170.21 L 4155.54 3172.87 M 4153.5 3170.21 L 4153.5 3171.85 M 4151.25 3170.21 L 4151.25 3172.87 M 4155.54 3174.22 L 4151.25 3174.22 M 4155.54 3174.22 L 4155.54 3176.88 M 4153.5 3174.22 L 4153.5 3175.86 M 4151.25 3174.22 L 4151.25 3176.88 M 4155.54 3178.23 L 4151.25 3178.23 M 4155.54 3178.23 L 4151.25 3181.1 M 4155.54 3181.1 L 4151.25 3181.1 M 4154.93 3185.31 L 4155.34 3184.9 L 4155.54 3184.29 L 4155.54 3183.47 L 4155.34 3182.85 L 4154.93 3182.45 L 4154.52 3182.45 L 4154.11 3182.65 L 4153.9 3182.85 L 4153.7 3183.26 L 4153.29 3184.49 L 4153.09 3184.9 L 4152.88 3185.1 L 4152.47 3185.31 L 4151.86 3185.31 L 4151.45 3184.9 L 4151.25 3184.29 L 4151.25 3183.47 L 4151.45 3182.85 L 4151.86 3182.45 M 4155.54 3186.66 L 4153.5 3188.3 L 4151.25 3188.3 M 4155.54 3189.93 L 4153.5 3188.3" fill="none"  stroke-width="0.6" c_note="note_pre" /></g><g c_partid="part_pcbtext" c_origin="4098.64,3074" c_rotation="270" c_mirror="0" id="gge1092" layerid="3" c_shapetype="group" ><path c_fontSize="8" c_fontFamily="" c_text="TEENSY 3.5" d="M 4103 3076.55 L 4095.37 3076.55 M 4103 3074 L 4103 3079.09 M 4103 3081.49 L 4095.37 3081.49 M 4103 3081.49 L 4103 3086.22 M 4099.37 3081.49 L 4099.37 3084.4 M 4095.37 3081.49 L 4095.37 3086.22 M 4103 3088.62 L 4095.37 3088.62 M 4103 3088.62 L 4103 3093.35 M 4099.37 3088.62 L 4099.37 3091.53 M 4095.37 3088.62 L 4095.37 3093.35 M 4103 3095.75 L 4095.37 3095.75 M 4103 3095.75 L 4095.37 3100.84 M 4103 3100.84 L 4095.37 3100.84 M 4101.91 3108.33 L 4102.64 3107.6 L 4103 3106.51 L 4103 3105.05 L 4102.64 3103.96 L 4101.91 3103.24 L 4101.19 3103.24 L 4100.46 3103.6 L 4100.09 3103.96 L 4099.73 3104.69 L 4099 3106.87 L 4098.64 3107.6 L 4098.28 3107.96 L 4097.55 3108.33 L 4096.46 3108.33 L 4095.73 3107.6 L 4095.37 3106.51 L 4095.37 3105.05 L 4095.73 3103.96 L 4096.46 3103.24 M 4103 3110.73 L 4099.37 3113.64 L 4095.37 3113.64 M 4103 3116.55 L 4099.37 3113.64 M 4103 3125.27 L 4103 3129.27 L 4100.09 3127.09 L 4100.09 3128.18 L 4099.73 3128.91 L 4099.37 3129.27 L 4098.28 3129.64 L 4097.55 3129.64 L 4096.46 3129.27 L 4095.73 3128.55 L 4095.37 3127.45 L 4095.37 3126.36 L 4095.73 3125.27 L 4096.09 3124.91 L 4096.82 3124.55 M 4097.19 3132.4 L 4096.82 3132.04 L 4096.46 3132.4 L 4096.82 3132.76 L 4097.19 3132.4 M 4103 3139.53 L 4103 3135.89 L 4099.73 3135.53 L 4100.09 3135.89 L 4100.46 3136.98 L 4100.46 3138.07 L 4100.09 3139.16 L 4099.37 3139.89 L 4098.28 3140.25 L 4097.55 3140.25 L 4096.46 3139.89 L 4095.73 3139.16 L 4095.37 3138.07 L 4095.37 3136.98 L 4095.73 3135.89 L 4096.09 3135.53 L 4096.82 3135.16" fill="none"  stroke-width="0.6"  /></g><g c_partid="part_pcbtext" c_origin="4056.34,3052.64" c_rotation="0" c_mirror="0" id="gge1098" layerid="3" c_shapetype="group" ><path c_fontSize="3" c_fontFamily="" c_text="GND" d="M 4058.39 3051.69 L 4058.25 3051.41 L 4057.98 3051.14 L 4057.7 3051 L 4057.16 3051 L 4056.89 3051.14 L 4056.61 3051.41 L 4056.48 3051.69 L 4056.34 3052.09 L 4056.34 3052.78 L 4056.48 3053.19 L 4056.61 3053.46 L 4056.89 3053.73 L 4057.16 3053.87 L 4057.7 3053.87 L 4057.98 3053.73 L 4058.25 3053.46 L 4058.39 3053.19 L 4058.39 3052.78 M 4057.7 3052.78 L 4058.39 3052.78 M 4059.29 3051 L 4059.29 3053.87 M 4059.29 3051 L 4061.19 3053.87 M 4061.19 3051 L 4061.19 3053.87 M 4062.09 3051 L 4062.09 3053.87 M 4062.09 3051 L 4063.05 3051 L 4063.46 3051.14 L 4063.73 3051.41 L 4063.87 3051.69 L 4064 3052.09 L 4064 3052.78 L 4063.87 3053.19 L 4063.73 3053.46 L 4063.46 3053.73 L 4063.05 3053.87 L 4062.09 3053.87" fill="none"  stroke-width="0.4"  /></g><g c_partid="part_pcbtext" c_origin="4061.09,3062.64" c_rotation="180" c_mirror="0" id="gge1104" layerid="3" c_shapetype="group" ><path c_fontSize="3" c_fontFamily="" c_text="0" d="M 4061.91 3061 L 4061.5 3061.14 L 4061.23 3061.55 L 4061.09 3062.23 L 4061.09 3062.64 L 4061.23 3063.32 L 4061.5 3063.73 L 4061.91 3063.87 L 4062.18 3063.87 L 4062.59 3063.73 L 4062.86 3063.32 L 4063 3062.64 L 4063 3062.23 L 4062.86 3061.55 L 4062.59 3061.14 L 4062.18 3061 L 4061.91 3061" fill="none"  stroke-width="0.4"  /></g><g c_partid="part_pcbtext" c_origin="4061.32,3072.64" c_rotation="180" c_mirror="0" id="gge1110" layerid="3" c_shapetype="group" ><path c_fontSize="3" c_fontFamily="" c_text="1" d="M 4061.32 3071.55 L 4061.59 3071.41 L 4062 3071 L 4062 3073.87" fill="none"  stroke-width="0.4"  /></g><g c_partid="part_pcbtext" c_origin="4061.09,3082.64" c_rotation="180" c_mirror="0" id="gge1116" layerid="3" c_shapetype="group" ><path c_fontSize="3" c_fontFamily="" c_text="2" d="M 4061.23 3081.69 L 4061.23 3081.55 L 4061.36 3081.28 L 4061.5 3081.14 L 4061.77 3081 L 4062.32 3081 L 4062.59 3081.14 L 4062.73 3081.28 L 4062.86 3081.55 L 4062.86 3081.82 L 4062.73 3082.09 L 4062.45 3082.5 L 4061.09 3083.87 L 4063 3083.87" fill="none"  stroke-width="0.4"  /></g><g c_partid="part_pcbtext" c_origin="4061.09,3092.64" c_rotation="180" c_mirror="0" id="gge1122" layerid="3" c_shapetype="group" ><path c_fontSize="3" c_fontFamily="" c_text="3" d="M 4061.36 3091 L 4062.86 3091 L 4062.04 3092.09 L 4062.45 3092.09 L 4062.73 3092.23 L 4062.86 3092.37 L 4063 3092.78 L 4063 3093.05 L 4062.86 3093.46 L 4062.59 3093.73 L 4062.18 3093.87 L 4061.77 3093.87 L 4061.36 3093.73 L 4061.23 3093.59 L 4061.09 3093.32" fill="none"  stroke-width="0.4"  /></g><g c_partid="part_pcbtext" c_origin="4060.95,3102.64" c_rotation="180" c_mirror="0" id="gge1128" layerid="3" c_shapetype="group" ><path c_fontSize="3" c_fontFamily="" c_text="4" d="M 4062.31 3101 L 4060.95 3102.91 L 4063 3102.91 M 4062.31 3101 L 4062.31 3103.87" fill="none"  stroke-width="0.4"  /></g><g c_partid="part_pcbtext" c_origin="4061.09,3112.64" c_rotation="180" c_mirror="0" id="gge1134" layerid="3" c_shapetype="group" ><path c_fontSize="3" c_fontFamily="" c_text="5" d="M 4062.73 3111 L 4061.36 3111 L 4061.23 3112.23 L 4061.36 3112.09 L 4061.77 3111.96 L 4062.18 3111.96 L 4062.59 3112.09 L 4062.86 3112.37 L 4063 3112.78 L 4063 3113.05 L 4062.86 3113.46 L 4062.59 3113.73 L 4062.18 3113.87 L 4061.77 3113.87 L 4061.36 3113.73 L 4061.23 3113.59 L 4061.09 3113.32" fill="none"  stroke-width="0.4"  /></g><g c_partid="part_pcbtext" c_origin="4061.23,3123.64" c_rotation="180" c_mirror="0" id="gge1140" layerid="3" c_shapetype="group" ><path c_fontSize="3" c_fontFamily="" c_text="6" d="M 4062.87 3122.41 L 4062.73 3122.14 L 4062.32 3122 L 4062.05 3122 L 4061.64 3122.14 L 4061.37 3122.55 L 4061.23 3123.23 L 4061.23 3123.91 L 4061.37 3124.46 L 4061.64 3124.73 L 4062.05 3124.87 L 4062.18 3124.87 L 4062.59 3124.73 L 4062.87 3124.46 L 4063 3124.05 L 4063 3123.91 L 4062.87 3123.5 L 4062.59 3123.23 L 4062.18 3123.09 L 4062.05 3123.09 L 4061.64 3123.23 L 4061.37 3123.5 L 4061.23 3123.91" fill="none"  stroke-width="0.4"  /></g><g c_partid="part_pcbtext" c_origin="4061,3133" c_rotation="180" c_mirror="0" id="gge1146" layerid="3" c_shapetype="group" ><path c_fontSize="3" c_fontFamily="" c_text="7" d="M 4062.91 3131.36 L 4061.55 3134.23 M 4061 3131.36 L 4062.91 3131.36" fill="none"  stroke-width="0.4"  /></g><g c_partid="part_pcbtext" c_origin="4061.09,3142.64" c_rotation="180" c_mirror="0" id="gge1152" layerid="3" c_shapetype="group" ><path c_fontSize="3" c_fontFamily="" c_text="8" d="M 4061.77 3141 L 4061.36 3141.14 L 4061.23 3141.41 L 4061.23 3141.69 L 4061.36 3141.96 L 4061.64 3142.09 L 4062.18 3142.23 L 4062.59 3142.37 L 4062.86 3142.64 L 4063 3142.91 L 4063 3143.32 L 4062.86 3143.59 L 4062.73 3143.73 L 4062.32 3143.87 L 4061.77 3143.87 L 4061.36 3143.73 L 4061.23 3143.59 L 4061.09 3143.32 L 4061.09 3142.91 L 4061.23 3142.64 L 4061.5 3142.37 L 4061.91 3142.23 L 4062.45 3142.09 L 4062.73 3141.96 L 4062.86 3141.69 L 4062.86 3141.41 L 4062.73 3141.14 L 4062.32 3141 L 4061.77 3141" fill="none"  stroke-width="0.4"  /></g><g c_partid="part_pcbtext" c_origin="4061.23,3152.64" c_rotation="180" c_mirror="0" id="gge1158" layerid="3" c_shapetype="group" ><path c_fontSize="3" c_fontFamily="" c_text="9" d="M 4063 3151.96 L 4062.87 3152.37 L 4062.59 3152.64 L 4062.18 3152.78 L 4062.05 3152.78 L 4061.64 3152.64 L 4061.37 3152.37 L 4061.23 3151.96 L 4061.23 3151.82 L 4061.37 3151.41 L 4061.64 3151.14 L 4062.05 3151 L 4062.18 3151 L 4062.59 3151.14 L 4062.87 3151.41 L 4063 3151.96 L 4063 3152.64 L 4062.87 3153.32 L 4062.59 3153.73 L 4062.18 3153.87 L 4061.91 3153.87 L 4061.5 3153.73 L 4061.37 3153.46" fill="none"  stroke-width="0.4"  /></g><g c_partid="part_pcbtext" c_origin="4060.51,3162.64" c_rotation="180" c_mirror="0" id="gge1164" layerid="3" c_shapetype="group" ><path c_fontSize="3" c_fontFamily="" c_text="10" d="M 4060.51 3161.55 L 4060.78 3161.41 L 4061.19 3161 L 4061.19 3163.87 M 4062.91 3161 L 4062.5 3161.14 L 4062.23 3161.55 L 4062.09 3162.23 L 4062.09 3162.64 L 4062.23 3163.32 L 4062.5 3163.73 L 4062.91 3163.87 L 4063.18 3163.87 L 4063.59 3163.73 L 4063.86 3163.32 L 4064 3162.64 L 4064 3162.23 L 4063.86 3161.55 L 4063.59 3161.14 L 4063.18 3161 L 4062.91 3161" fill="none"  stroke-width="0.4"  /></g><g c_partid="part_pcbtext" c_origin="4060.74,3172.64" c_rotation="180" c_mirror="0" id="gge1170" layerid="3" c_shapetype="group" ><path c_fontSize="3" c_fontFamily="" c_text="11" d="M 4060.74 3171.55 L 4061.01 3171.41 L 4061.42 3171 L 4061.42 3173.87 M 4062.32 3171.55 L 4062.59 3171.41 L 4063 3171 L 4063 3173.87" fill="none"  stroke-width="0.4"  /></g><g c_partid="part_pcbtext" c_origin="4060.51,3182.64" c_rotation="180" c_mirror="0" id="gge1176" layerid="3" c_shapetype="group" ><path c_fontSize="3" c_fontFamily="" c_text="12" d="M 4060.51 3181.55 L 4060.78 3181.41 L 4061.19 3181 L 4061.19 3183.87 M 4062.23 3181.69 L 4062.23 3181.55 L 4062.36 3181.28 L 4062.5 3181.14 L 4062.77 3181 L 4063.32 3181 L 4063.59 3181.14 L 4063.73 3181.28 L 4063.86 3181.55 L 4063.86 3181.82 L 4063.73 3182.09 L 4063.46 3182.5 L 4062.09 3183.87 L 4064 3183.87" fill="none"  stroke-width="0.4"  /></g><g c_partid="part_pcbtext" c_origin="4055.03,3192.64" c_rotation="180" c_mirror="0" id="gge1182" layerid="3" c_shapetype="group" ><path c_fontSize="3" c_fontFamily="" c_text="3.3V" d="M 4055.3 3191 L 4056.8 3191 L 4055.98 3192.09 L 4056.39 3192.09 L 4056.67 3192.23 L 4056.8 3192.37 L 4056.94 3192.78 L 4056.94 3193.05 L 4056.8 3193.46 L 4056.53 3193.73 L 4056.12 3193.87 L 4055.71 3193.87 L 4055.3 3193.73 L 4055.17 3193.59 L 4055.03 3193.32 M 4057.98 3193.19 L 4057.84 3193.32 L 4057.98 3193.46 L 4058.11 3193.32 L 4057.98 3193.19 M 4059.28 3191 L 4060.78 3191 L 4059.97 3192.09 L 4060.38 3192.09 L 4060.65 3192.23 L 4060.78 3192.37 L 4060.92 3192.78 L 4060.92 3193.05 L 4060.78 3193.46 L 4060.51 3193.73 L 4060.1 3193.87 L 4059.69 3193.87 L 4059.28 3193.73 L 4059.15 3193.59 L 4059.01 3193.32 M 4061.82 3191 L 4062.91 3193.87 M 4064 3191 L 4062.91 3193.87" fill="none"  stroke-width="0.4"  /></g><g c_partid="part_pcbtext" c_origin="4059.15,3202.64" c_rotation="180" c_mirror="0" id="gge1188" layerid="3" c_shapetype="group" ><path c_fontSize="3" c_fontFamily="" c_text="24" d="M 4059.29 3201.69 L 4059.29 3201.55 L 4059.42 3201.28 L 4059.56 3201.14 L 4059.83 3201 L 4060.38 3201 L 4060.65 3201.14 L 4060.79 3201.28 L 4060.92 3201.55 L 4060.92 3201.82 L 4060.79 3202.09 L 4060.51 3202.5 L 4059.15 3203.87 L 4061.06 3203.87 M 4063.32 3201 L 4061.96 3202.91 L 4064 3202.91 M 4063.32 3201 L 4063.32 3203.87" fill="none"  stroke-width="0.4"  /></g><g c_partid="part_pcbtext" c_origin="4059.28,3212.64" c_rotation="180" c_mirror="0" id="gge1194" layerid="3" c_shapetype="group" ><path c_fontSize="3" c_fontFamily="" c_text="25" d="M 4059.42 3211.69 L 4059.42 3211.55 L 4059.55 3211.28 L 4059.69 3211.14 L 4059.96 3211 L 4060.51 3211 L 4060.78 3211.14 L 4060.92 3211.28 L 4061.05 3211.55 L 4061.05 3211.82 L 4060.92 3212.09 L 4060.64 3212.5 L 4059.28 3213.87 L 4061.19 3213.87 M 4063.73 3211 L 4062.36 3211 L 4062.23 3212.23 L 4062.36 3212.09 L 4062.77 3211.96 L 4063.18 3211.96 L 4063.59 3212.09 L 4063.86 3212.37 L 4064 3212.78 L 4064 3213.05 L 4063.86 3213.46 L 4063.59 3213.73 L 4063.18 3213.87 L 4062.77 3213.87 L 4062.36 3213.73 L 4062.23 3213.59 L 4062.09 3213.32" fill="none"  stroke-width="0.4"  /></g><g c_partid="part_pcbtext" c_origin="4059.42,3222.64" c_rotation="180" c_mirror="0" id="gge1200" layerid="3" c_shapetype="group" ><path c_fontSize="3" c_fontFamily="" c_text="26" d="M 4059.56 3221.69 L 4059.56 3221.55 L 4059.69 3221.28 L 4059.83 3221.14 L 4060.1 3221 L 4060.65 3221 L 4060.92 3221.14 L 4061.06 3221.28 L 4061.19 3221.55 L 4061.19 3221.82 L 4061.06 3222.09 L 4060.78 3222.5 L 4059.42 3223.87 L 4061.33 3223.87 M 4063.87 3221.41 L 4063.73 3221.14 L 4063.32 3221 L 4063.05 3221 L 4062.64 3221.14 L 4062.37 3221.55 L 4062.23 3222.23 L 4062.23 3222.91 L 4062.37 3223.46 L 4062.64 3223.73 L 4063.05 3223.87 L 4063.18 3223.87 L 4063.59 3223.73 L 4063.87 3223.46 L 4064 3223.05 L 4064 3222.91 L 4063.87 3222.5 L 4063.59 3222.23 L 4063.18 3222.09 L 4063.05 3222.09 L 4062.64 3222.23 L 4062.37 3222.5 L 4062.23 3222.91" fill="none"  stroke-width="0.4"  /></g><g c_partid="part_pcbtext" c_origin="4059.28,3232.64" c_rotation="180" c_mirror="0" id="gge1206" layerid="3" c_shapetype="group" ><path c_fontSize="3" c_fontFamily="" c_text="27" d="M 4059.42 3231.69 L 4059.42 3231.55 L 4059.55 3231.28 L 4059.69 3231.14 L 4059.96 3231 L 4060.51 3231 L 4060.78 3231.14 L 4060.92 3231.28 L 4061.05 3231.55 L 4061.05 3231.82 L 4060.92 3232.09 L 4060.64 3232.5 L 4059.28 3233.87 L 4061.19 3233.87 M 4064 3231 L 4062.63 3233.87 M 4062.09 3231 L 4064 3231" fill="none"  stroke-width="0.4"  /></g><g c_partid="part_pcbtext" c_origin="4059.28,3242.64" c_rotation="180" c_mirror="0" id="gge1212" layerid="3" c_shapetype="group" ><path c_fontSize="3" c_fontFamily="" c_text="28" d="M 4059.42 3241.69 L 4059.42 3241.55 L 4059.55 3241.28 L 4059.69 3241.14 L 4059.96 3241 L 4060.51 3241 L 4060.78 3241.14 L 4060.92 3241.28 L 4061.05 3241.55 L 4061.05 3241.82 L 4060.92 3242.09 L 4060.64 3242.5 L 4059.28 3243.87 L 4061.19 3243.87 M 4062.77 3241 L 4062.36 3241.14 L 4062.23 3241.41 L 4062.23 3241.69 L 4062.36 3241.96 L 4062.63 3242.09 L 4063.18 3242.23 L 4063.59 3242.37 L 4063.86 3242.64 L 4064 3242.91 L 4064 3243.32 L 4063.86 3243.59 L 4063.73 3243.73 L 4063.32 3243.87 L 4062.77 3243.87 L 4062.36 3243.73 L 4062.23 3243.59 L 4062.09 3243.32 L 4062.09 3242.91 L 4062.23 3242.64 L 4062.5 3242.37 L 4062.91 3242.23 L 4063.45 3242.09 L 4063.73 3241.96 L 4063.86 3241.69 L 4063.86 3241.41 L 4063.73 3241.14 L 4063.32 3241 L 4062.77 3241" fill="none"  stroke-width="0.4"  /></g><g c_partid="part_pcbtext" c_origin="4059.42,3252.64" c_rotation="180" c_mirror="0" id="gge1218" layerid="3" c_shapetype="group" ><path c_fontSize="3" c_fontFamily="" c_text="29" d="M 4059.56 3251.69 L 4059.56 3251.55 L 4059.69 3251.28 L 4059.83 3251.14 L 4060.1 3251 L 4060.65 3251 L 4060.92 3251.14 L 4061.06 3251.28 L 4061.19 3251.55 L 4061.19 3251.82 L 4061.06 3252.09 L 4060.78 3252.5 L 4059.42 3253.87 L 4061.33 3253.87 M 4064 3251.96 L 4063.87 3252.37 L 4063.59 3252.64 L 4063.18 3252.78 L 4063.05 3252.78 L 4062.64 3252.64 L 4062.37 3252.37 L 4062.23 3251.96 L 4062.23 3251.82 L 4062.37 3251.41 L 4062.64 3251.14 L 4063.05 3251 L 4063.18 3251 L 4063.59 3251.14 L 4063.87 3251.41 L 4064 3251.96 L 4064 3252.64 L 4063.87 3253.32 L 4063.59 3253.73 L 4063.18 3253.87 L 4062.91 3253.87 L 4062.5 3253.73 L 4062.37 3253.46" fill="none"  stroke-width="0.4"  /></g><g c_partid="part_pcbtext" c_origin="4059.28,3262.64" c_rotation="180" c_mirror="0" id="gge1224" layerid="3" c_shapetype="group" ><path c_fontSize="3" c_fontFamily="" c_text="30" d="M 4059.55 3261 L 4061.05 3261 L 4060.23 3262.09 L 4060.64 3262.09 L 4060.92 3262.23 L 4061.05 3262.37 L 4061.19 3262.78 L 4061.19 3263.05 L 4061.05 3263.46 L 4060.78 3263.73 L 4060.37 3263.87 L 4059.96 3263.87 L 4059.55 3263.73 L 4059.42 3263.59 L 4059.28 3263.32 M 4062.91 3261 L 4062.5 3261.14 L 4062.23 3261.55 L 4062.09 3262.23 L 4062.09 3262.64 L 4062.23 3263.32 L 4062.5 3263.73 L 4062.91 3263.87 L 4063.18 3263.87 L 4063.59 3263.73 L 4063.86 3263.32 L 4064 3262.64 L 4064 3262.23 L 4063.86 3261.55 L 4063.59 3261.14 L 4063.18 3261 L 4062.91 3261" fill="none"  stroke-width="0.4"  /></g><g c_partid="part_pcbtext" c_origin="4059.51,3272.64" c_rotation="180" c_mirror="0" id="gge1230" layerid="3" c_shapetype="group" ><path c_fontSize="3" c_fontFamily="" c_text="31" d="M 4059.78 3271 L 4061.28 3271 L 4060.46 3272.09 L 4060.87 3272.09 L 4061.15 3272.23 L 4061.28 3272.37 L 4061.42 3272.78 L 4061.42 3273.05 L 4061.28 3273.46 L 4061.01 3273.73 L 4060.6 3273.87 L 4060.19 3273.87 L 4059.78 3273.73 L 4059.65 3273.59 L 4059.51 3273.32 M 4062.32 3271.55 L 4062.59 3271.41 L 4063 3271 L 4063 3273.87" fill="none"  stroke-width="0.4"  /></g><g c_partid="part_pcbtext" c_origin="4059.28,3282.64" c_rotation="180" c_mirror="0" id="gge1236" layerid="3" c_shapetype="group" ><path c_fontSize="3" c_fontFamily="" c_text="32" d="M 4059.55 3281 L 4061.05 3281 L 4060.23 3282.09 L 4060.64 3282.09 L 4060.92 3282.23 L 4061.05 3282.37 L 4061.19 3282.78 L 4061.19 3283.05 L 4061.05 3283.46 L 4060.78 3283.73 L 4060.37 3283.87 L 4059.96 3283.87 L 4059.55 3283.73 L 4059.42 3283.59 L 4059.28 3283.32 M 4062.23 3281.69 L 4062.23 3281.55 L 4062.36 3281.28 L 4062.5 3281.14 L 4062.77 3281 L 4063.32 3281 L 4063.59 3281.14 L 4063.73 3281.28 L 4063.86 3281.55 L 4063.86 3281.82 L 4063.73 3282.09 L 4063.45 3282.5 L 4062.09 3283.87 L 4064 3283.87" fill="none"  stroke-width="0.4"  /></g><g c_partid="part_pcbtext" c_origin="4049.03,3172.64" c_rotation="180" c_mirror="0" id="gge1242" layerid="3" c_shapetype="group" ><path c_fontSize="3" c_fontFamily="" c_text="MOSI" d="M 4049.03 3171 L 4049.03 3173.87 M 4049.03 3171 L 4050.12 3173.87 M 4051.21 3171 L 4050.12 3173.87 M 4051.21 3171 L 4051.21 3173.87 M 4052.93 3171 L 4052.66 3171.14 L 4052.38 3171.41 L 4052.25 3171.69 L 4052.11 3172.09 L 4052.11 3172.78 L 4052.25 3173.19 L 4052.38 3173.46 L 4052.66 3173.73 L 4052.93 3173.87 L 4053.48 3173.87 L 4053.75 3173.73 L 4054.02 3173.46 L 4054.16 3173.19 L 4054.29 3172.78 L 4054.29 3172.09 L 4054.16 3171.69 L 4054.02 3171.41 L 4053.75 3171.14 L 4053.48 3171 L 4052.93 3171 M 4057.1 3171.41 L 4056.83 3171.14 L 4056.42 3171 L 4055.88 3171 L 4055.47 3171.14 L 4055.19 3171.41 L 4055.19 3171.69 L 4055.33 3171.96 L 4055.47 3172.09 L 4055.74 3172.23 L 4056.56 3172.5 L 4056.83 3172.64 L 4056.97 3172.78 L 4057.1 3173.05 L 4057.1 3173.46 L 4056.83 3173.73 L 4056.42 3173.87 L 4055.88 3173.87 L 4055.47 3173.73 L 4055.19 3173.46 M 4058 3171 L 4058 3173.87" fill="none"  stroke-width="0.4"  /></g><g c_partid="part_pcbtext" c_origin="4049,3183" c_rotation="180" c_mirror="0" id="gge1248" layerid="3" c_shapetype="group" ><path c_fontSize="3" c_fontFamily="" c_text="MISO" d="M 4049 3181.36 L 4049 3184.23 M 4049 3181.36 L 4050.09 3184.23 M 4051.18 3181.36 L 4050.09 3184.23 M 4051.18 3181.36 L 4051.18 3184.23 M 4052.08 3181.36 L 4052.08 3184.23 M 4054.89 3181.77 L 4054.62 3181.5 L 4054.21 3181.36 L 4053.66 3181.36 L 4053.25 3181.5 L 4052.98 3181.77 L 4052.98 3182.05 L 4053.12 3182.32 L 4053.25 3182.45 L 4053.53 3182.59 L 4054.35 3182.86 L 4054.62 3183 L 4054.75 3183.14 L 4054.89 3183.41 L 4054.89 3183.82 L 4054.62 3184.09 L 4054.21 3184.23 L 4053.66 3184.23 L 4053.25 3184.09 L 4052.98 3183.82 M 4056.61 3181.36 L 4056.34 3181.5 L 4056.06 3181.77 L 4055.93 3182.05 L 4055.79 3182.45 L 4055.79 3183.14 L 4055.93 3183.55 L 4056.06 3183.82 L 4056.34 3184.09 L 4056.61 3184.23 L 4057.15 3184.23 L 4057.43 3184.09 L 4057.7 3183.82 L 4057.84 3183.55 L 4057.97 3183.14 L 4057.97 3182.45 L 4057.84 3182.05 L 4057.7 3181.77 L 4057.43 3181.5 L 4057.15 3181.36 L 4056.61 3181.36" fill="none"  stroke-width="0.4"  /></g><g c_partid="part_pcbtext" c_origin="4142.34,3182.64" c_rotation="180" c_mirror="0" id="gge1254" layerid="3" c_shapetype="group" ><path c_fontSize="3" c_fontFamily="" c_text="SCK" d="M 4144.25 3181.41 L 4143.98 3181.14 L 4143.57 3181 L 4143.02 3181 L 4142.61 3181.14 L 4142.34 3181.41 L 4142.34 3181.69 L 4142.48 3181.96 L 4142.61 3182.09 L 4142.89 3182.23 L 4143.7 3182.5 L 4143.98 3182.64 L 4144.11 3182.78 L 4144.25 3183.05 L 4144.25 3183.46 L 4143.98 3183.73 L 4143.57 3183.87 L 4143.02 3183.87 L 4142.61 3183.73 L 4142.34 3183.46 M 4147.19 3181.69 L 4147.06 3181.41 L 4146.79 3181.14 L 4146.51 3181 L 4145.97 3181 L 4145.69 3181.14 L 4145.42 3181.41 L 4145.29 3181.69 L 4145.15 3182.09 L 4145.15 3182.78 L 4145.29 3183.19 L 4145.42 3183.46 L 4145.69 3183.73 L 4145.97 3183.87 L 4146.51 3183.87 L 4146.79 3183.73 L 4147.06 3183.46 L 4147.19 3183.19 M 4148.09 3181 L 4148.09 3183.87 M 4150 3181 L 4148.09 3182.91 M 4148.78 3182.23 L 4150 3183.87" fill="none"  stroke-width="0.4"  /></g><g c_partid="part_pcbtext" c_origin="4136.51,3182.64" c_rotation="180" c_mirror="0" id="gge1260" layerid="3" c_shapetype="group" ><path c_fontSize="3" c_fontFamily="" c_text="13" d="M 4136.51 3181.55 L 4136.78 3181.41 L 4137.19 3181 L 4137.19 3183.87 M 4138.36 3181 L 4139.86 3181 L 4139.05 3182.09 L 4139.46 3182.09 L 4139.73 3182.23 L 4139.86 3182.37 L 4140 3182.78 L 4140 3183.05 L 4139.86 3183.46 L 4139.59 3183.73 L 4139.18 3183.87 L 4138.77 3183.87 L 4138.36 3183.73 L 4138.23 3183.59 L 4138.09 3183.32" fill="none"  stroke-width="0.4"  /></g><g c_partid="part_pcbtext" c_origin="4136.51,3172.64" c_rotation="180" c_mirror="0" id="gge1266" layerid="3" c_shapetype="group" ><path c_fontSize="3" c_fontFamily="" c_text="14" d="M 4136.51 3171.55 L 4136.78 3171.41 L 4137.19 3171 L 4137.19 3173.87 M 4139.46 3171 L 4138.09 3172.91 L 4140.14 3172.91 M 4139.46 3171 L 4139.46 3173.87" fill="none"  stroke-width="0.4"  /></g><g c_partid="part_pcbtext" c_origin="4137,3163" c_rotation="180" c_mirror="0" id="gge1272" layerid="3" c_shapetype="group" ><path c_fontSize="3" c_fontFamily="" c_text="15" d="M 4137 3161.91 L 4137.27 3161.77 L 4137.68 3161.36 L 4137.68 3164.23 M 4140.22 3161.36 L 4138.85 3161.36 L 4138.72 3162.59 L 4138.85 3162.45 L 4139.26 3162.32 L 4139.67 3162.32 L 4140.08 3162.45 L 4140.35 3162.73 L 4140.49 3163.14 L 4140.49 3163.41 L 4140.35 3163.82 L 4140.08 3164.09 L 4139.67 3164.23 L 4139.26 3164.23 L 4138.85 3164.09 L 4138.72 3163.95 L 4138.58 3163.68" fill="none"  stroke-width="0.4"  /></g><g c_partid="part_pcbtext" c_origin="4137,3153" c_rotation="180" c_mirror="0" id="gge1278" layerid="3" c_shapetype="group" ><path c_fontSize="3" c_fontFamily="" c_text="16" d="M 4137 3151.91 L 4137.27 3151.77 L 4137.68 3151.36 L 4137.68 3154.23 M 4140.22 3151.77 L 4140.08 3151.5 L 4139.67 3151.36 L 4139.4 3151.36 L 4138.99 3151.5 L 4138.72 3151.91 L 4138.58 3152.59 L 4138.58 3153.27 L 4138.72 3153.82 L 4138.99 3154.09 L 4139.4 3154.23 L 4139.54 3154.23 L 4139.95 3154.09 L 4140.22 3153.82 L 4140.35 3153.41 L 4140.35 3153.27 L 4140.22 3152.86 L 4139.95 3152.59 L 4139.54 3152.45 L 4139.4 3152.45 L 4138.99 3152.59 L 4138.72 3152.86 L 4138.58 3153.27" fill="none"  stroke-width="0.4"  /></g><g c_partid="part_pcbtext" c_origin="4137,3143" c_rotation="180" c_mirror="0" id="gge1284" layerid="3" c_shapetype="group" ><path c_fontSize="3" c_fontFamily="" c_text="17" d="M 4137 3141.91 L 4137.27 3141.77 L 4137.68 3141.36 L 4137.68 3144.23 M 4140.49 3141.36 L 4139.13 3144.23 M 4138.58 3141.36 L 4140.49 3141.36" fill="none"  stroke-width="0.4"  /></g><g c_partid="part_pcbtext" c_origin="4137,3133" c_rotation="180" c_mirror="0" id="gge1290" layerid="3" c_shapetype="group" ><path c_fontSize="3" c_fontFamily="" c_text="18" d="M 4137 3131.91 L 4137.27 3131.77 L 4137.68 3131.36 L 4137.68 3134.23 M 4139.26 3131.36 L 4138.85 3131.5 L 4138.72 3131.77 L 4138.72 3132.05 L 4138.85 3132.32 L 4139.13 3132.45 L 4139.67 3132.59 L 4140.08 3132.73 L 4140.35 3133 L 4140.49 3133.27 L 4140.49 3133.68 L 4140.35 3133.95 L 4140.22 3134.09 L 4139.81 3134.23 L 4139.26 3134.23 L 4138.85 3134.09 L 4138.72 3133.95 L 4138.58 3133.68 L 4138.58 3133.27 L 4138.72 3133 L 4138.99 3132.73 L 4139.4 3132.59 L 4139.95 3132.45 L 4140.22 3132.32 L 4140.35 3132.05 L 4140.35 3131.77 L 4140.22 3131.5 L 4139.81 3131.36 L 4139.26 3131.36" fill="none"  stroke-width="0.4"  /></g><g c_partid="part_pcbtext" c_origin="4137,3123" c_rotation="180" c_mirror="0" id="gge1296" layerid="3" c_shapetype="group" ><path c_fontSize="3" c_fontFamily="" c_text="19" d="M 4137 3121.91 L 4137.27 3121.77 L 4137.68 3121.36 L 4137.68 3124.23 M 4140.35 3122.32 L 4140.22 3122.73 L 4139.95 3123 L 4139.54 3123.14 L 4139.4 3123.14 L 4138.99 3123 L 4138.72 3122.73 L 4138.58 3122.32 L 4138.58 3122.18 L 4138.72 3121.77 L 4138.99 3121.5 L 4139.4 3121.36 L 4139.54 3121.36 L 4139.95 3121.5 L 4140.22 3121.77 L 4140.35 3122.32 L 4140.35 3123 L 4140.22 3123.68 L 4139.95 3124.09 L 4139.54 3124.23 L 4139.26 3124.23 L 4138.85 3124.09 L 4138.72 3123.82" fill="none"  stroke-width="0.4"  /></g><g c_partid="part_pcbtext" c_origin="4136.51,3113.64" c_rotation="180" c_mirror="0" id="gge1302" layerid="3" c_shapetype="group" ><path c_fontSize="3" c_fontFamily="" c_text="20" d="M 4136.65 3112.69 L 4136.65 3112.55 L 4136.78 3112.28 L 4136.92 3112.14 L 4137.19 3112 L 4137.74 3112 L 4138.01 3112.14 L 4138.15 3112.28 L 4138.28 3112.55 L 4138.28 3112.82 L 4138.15 3113.09 L 4137.87 3113.5 L 4136.51 3114.87 L 4138.42 3114.87 M 4140.14 3112 L 4139.73 3112.14 L 4139.46 3112.55 L 4139.32 3113.23 L 4139.32 3113.64 L 4139.46 3114.32 L 4139.73 3114.73 L 4140.14 3114.87 L 4140.41 3114.87 L 4140.82 3114.73 L 4141.09 3114.32 L 4141.23 3113.64 L 4141.23 3113.23 L 4141.09 3112.55 L 4140.82 3112.14 L 4140.41 3112 L 4140.14 3112" fill="none"  stroke-width="0.4"  /></g><g c_partid="part_pcbtext" c_origin="4137,3103" c_rotation="180" c_mirror="0" id="gge1308" layerid="3" c_shapetype="group" ><path c_fontSize="3" c_fontFamily="" c_text="21" d="M 4137.14 3102.05 L 4137.14 3101.91 L 4137.27 3101.64 L 4137.41 3101.5 L 4137.68 3101.36 L 4138.23 3101.36 L 4138.5 3101.5 L 4138.64 3101.64 L 4138.77 3101.91 L 4138.77 3102.18 L 4138.64 3102.45 L 4138.36 3102.86 L 4137 3104.23 L 4138.91 3104.23 M 4139.81 3101.91 L 4140.08 3101.77 L 4140.49 3101.36 L 4140.49 3104.23" fill="none"  stroke-width="0.4"  /></g><g c_partid="part_pcbtext" c_origin="4137,3093" c_rotation="180" c_mirror="0" id="gge1314" layerid="3" c_shapetype="group" ><path c_fontSize="3" c_fontFamily="" c_text="22" d="M 4137.14 3092.05 L 4137.14 3091.91 L 4137.27 3091.64 L 4137.41 3091.5 L 4137.68 3091.36 L 4138.23 3091.36 L 4138.5 3091.5 L 4138.64 3091.64 L 4138.77 3091.91 L 4138.77 3092.18 L 4138.64 3092.45 L 4138.36 3092.86 L 4137 3094.23 L 4138.91 3094.23 M 4139.95 3092.05 L 4139.95 3091.91 L 4140.08 3091.64 L 4140.22 3091.5 L 4140.49 3091.36 L 4141.04 3091.36 L 4141.31 3091.5 L 4141.45 3091.64 L 4141.58 3091.91 L 4141.58 3092.18 L 4141.45 3092.45 L 4141.17 3092.86 L 4139.81 3094.23 L 4141.72 3094.23" fill="none"  stroke-width="0.4"  /></g><g c_partid="part_pcbtext" c_origin="4137,3083" c_rotation="180" c_mirror="0" id="gge1320" layerid="3" c_shapetype="group" ><path c_fontSize="3" c_fontFamily="" c_text="23" d="M 4137.14 3082.05 L 4137.14 3081.91 L 4137.27 3081.64 L 4137.41 3081.5 L 4137.68 3081.36 L 4138.23 3081.36 L 4138.5 3081.5 L 4138.64 3081.64 L 4138.77 3081.91 L 4138.77 3082.18 L 4138.64 3082.45 L 4138.36 3082.86 L 4137 3084.23 L 4138.91 3084.23 M 4140.08 3081.36 L 4141.58 3081.36 L 4140.76 3082.45 L 4141.17 3082.45 L 4141.45 3082.59 L 4141.58 3082.73 L 4141.72 3083.14 L 4141.72 3083.41 L 4141.58 3083.82 L 4141.31 3084.09 L 4140.9 3084.23 L 4140.49 3084.23 L 4140.08 3084.09 L 4139.95 3083.95 L 4139.81 3083.68" fill="none"  stroke-width="0.4"  /></g><g c_partid="part_pcbtext" c_origin="4137,3073" c_rotation="180" c_mirror="0" id="gge1326" layerid="3" c_shapetype="group" ><path c_fontSize="3" c_fontFamily="" c_text="3.3V" d="M 4137.27 3071.36 L 4138.77 3071.36 L 4137.95 3072.45 L 4138.36 3072.45 L 4138.64 3072.59 L 4138.77 3072.73 L 4138.91 3073.14 L 4138.91 3073.41 L 4138.77 3073.82 L 4138.5 3074.09 L 4138.09 3074.23 L 4137.68 3074.23 L 4137.27 3074.09 L 4137.14 3073.95 L 4137 3073.68 M 4139.95 3073.55 L 4139.81 3073.68 L 4139.95 3073.82 L 4140.08 3073.68 L 4139.95 3073.55 M 4141.25 3071.36 L 4142.75 3071.36 L 4141.94 3072.45 L 4142.35 3072.45 L 4142.62 3072.59 L 4142.75 3072.73 L 4142.89 3073.14 L 4142.89 3073.41 L 4142.75 3073.82 L 4142.48 3074.09 L 4142.07 3074.23 L 4141.66 3074.23 L 4141.25 3074.09 L 4141.12 3073.95 L 4140.98 3073.68 M 4143.79 3071.36 L 4144.88 3074.23 M 4145.97 3071.36 L 4144.88 3074.23" fill="none"  stroke-width="0.4"  /></g><g c_partid="part_pcbtext" c_origin="4136.25,3062.64" c_rotation="180" c_mirror="0" id="gge1332" layerid="3" c_shapetype="group" ><path c_fontSize="3" c_fontFamily="" c_text="AGND" d="M 4137.34 3061 L 4136.25 3063.87 M 4137.34 3061 L 4138.43 3063.87 M 4136.66 3062.91 L 4138.02 3062.91 M 4141.38 3061.69 L 4141.24 3061.41 L 4140.97 3061.14 L 4140.7 3061 L 4140.15 3061 L 4139.88 3061.14 L 4139.6 3061.41 L 4139.47 3061.69 L 4139.33 3062.09 L 4139.33 3062.78 L 4139.47 3063.19 L 4139.6 3063.46 L 4139.88 3063.73 L 4140.15 3063.87 L 4140.7 3063.87 L 4140.97 3063.73 L 4141.24 3063.46 L 4141.38 3063.19 L 4141.38 3062.78 M 4140.7 3062.78 L 4141.38 3062.78 M 4142.28 3061 L 4142.28 3063.87 M 4142.28 3061 L 4144.19 3063.87 M 4144.19 3061 L 4144.19 3063.87 M 4145.09 3061 L 4145.09 3063.87 M 4145.09 3061 L 4146.04 3061 L 4146.45 3061.14 L 4146.72 3061.41 L 4146.86 3061.69 L 4147 3062.09 L 4147 3062.78 L 4146.86 3063.19 L 4146.72 3063.46 L 4146.45 3063.73 L 4146.04 3063.87 L 4145.09 3063.87" fill="none"  stroke-width="0.4"  /></g><g c_partid="part_pcbtext" c_origin="4137,3053" c_rotation="180" c_mirror="0" id="gge1338" layerid="3" c_shapetype="group" ><path c_fontSize="3" c_fontFamily="" c_text="Vin" d="M 4137 3051.36 L 4138.09 3054.23 M 4139.18 3051.36 L 4138.09 3054.23 M 4140.08 3051.36 L 4140.22 3051.5 L 4140.35 3051.36 L 4140.22 3051.23 L 4140.08 3051.36 M 4140.22 3052.32 L 4140.22 3054.23 M 4141.25 3052.32 L 4141.25 3054.23 M 4141.25 3052.86 L 4141.66 3052.45 L 4141.94 3052.32 L 4142.35 3052.32 L 4142.62 3052.45 L 4142.75 3052.86 L 4142.75 3054.23" fill="none"  stroke-width="0.4"  /></g><g c_partid="part_pcbtext" c_origin="4137.28,3282.64" c_rotation="180" c_mirror="0" id="gge1344" layerid="3" c_shapetype="group" ><path c_fontSize="3" c_fontFamily="" c_text="33" d="M 4137.55 3281 L 4139.05 3281 L 4138.23 3282.09 L 4138.64 3282.09 L 4138.92 3282.23 L 4139.05 3282.37 L 4139.19 3282.78 L 4139.19 3283.05 L 4139.05 3283.46 L 4138.78 3283.73 L 4138.37 3283.87 L 4137.96 3283.87 L 4137.55 3283.73 L 4137.42 3283.59 L 4137.28 3283.32 M 4140.36 3281 L 4141.86 3281 L 4141.04 3282.09 L 4141.45 3282.09 L 4141.73 3282.23 L 4141.86 3282.37 L 4142 3282.78 L 4142 3283.05 L 4141.86 3283.46 L 4141.59 3283.73 L 4141.18 3283.87 L 4140.77 3283.87 L 4140.36 3283.73 L 4140.23 3283.59 L 4140.09 3283.32" fill="none"  stroke-width="0.4"  /></g><g c_partid="part_pcbtext" c_origin="4137.28,3272.64" c_rotation="180" c_mirror="0" id="gge1350" layerid="3" c_shapetype="group" ><path c_fontSize="3" c_fontFamily="" c_text="34" d="M 4137.55 3271 L 4139.05 3271 L 4138.23 3272.09 L 4138.64 3272.09 L 4138.92 3272.23 L 4139.05 3272.37 L 4139.19 3272.78 L 4139.19 3273.05 L 4139.05 3273.46 L 4138.78 3273.73 L 4138.37 3273.87 L 4137.96 3273.87 L 4137.55 3273.73 L 4137.42 3273.59 L 4137.28 3273.32 M 4141.45 3271 L 4140.09 3272.91 L 4142.13 3272.91 M 4141.45 3271 L 4141.45 3273.87" fill="none"  stroke-width="0.4"  /></g><g c_partid="part_pcbtext" c_origin="4137,3263" c_rotation="180" c_mirror="0" id="gge1356" layerid="3" c_shapetype="group" ><path c_fontSize="3" c_fontFamily="" c_text="35" d="M 4137.27 3261.36 L 4138.77 3261.36 L 4137.95 3262.45 L 4138.36 3262.45 L 4138.64 3262.59 L 4138.77 3262.73 L 4138.91 3263.14 L 4138.91 3263.41 L 4138.77 3263.82 L 4138.5 3264.09 L 4138.09 3264.23 L 4137.68 3264.23 L 4137.27 3264.09 L 4137.14 3263.95 L 4137 3263.68 M 4141.45 3261.36 L 4140.08 3261.36 L 4139.95 3262.59 L 4140.08 3262.45 L 4140.49 3262.32 L 4140.9 3262.32 L 4141.31 3262.45 L 4141.58 3262.73 L 4141.72 3263.14 L 4141.72 3263.41 L 4141.58 3263.82 L 4141.31 3264.09 L 4140.9 3264.23 L 4140.49 3264.23 L 4140.08 3264.09 L 4139.95 3263.95 L 4139.81 3263.68" fill="none"  stroke-width="0.4"  /></g><g c_partid="part_pcbtext" c_origin="4137,3253" c_rotation="180" c_mirror="0" id="gge1362" layerid="3" c_shapetype="group" ><path c_fontSize="3" c_fontFamily="" c_text="36" d="M 4137.27 3251.36 L 4138.77 3251.36 L 4137.95 3252.45 L 4138.36 3252.45 L 4138.64 3252.59 L 4138.77 3252.73 L 4138.91 3253.14 L 4138.91 3253.41 L 4138.77 3253.82 L 4138.5 3254.09 L 4138.09 3254.23 L 4137.68 3254.23 L 4137.27 3254.09 L 4137.14 3253.95 L 4137 3253.68 M 4141.45 3251.77 L 4141.31 3251.5 L 4140.9 3251.36 L 4140.63 3251.36 L 4140.22 3251.5 L 4139.95 3251.91 L 4139.81 3252.59 L 4139.81 3253.27 L 4139.95 3253.82 L 4140.22 3254.09 L 4140.63 3254.23 L 4140.76 3254.23 L 4141.17 3254.09 L 4141.45 3253.82 L 4141.58 3253.41 L 4141.58 3253.27 L 4141.45 3252.86 L 4141.17 3252.59 L 4140.76 3252.45 L 4140.63 3252.45 L 4140.22 3252.59 L 4139.95 3252.86 L 4139.81 3253.27" fill="none"  stroke-width="0.4"  /></g><g c_partid="part_pcbtext" c_origin="4137,3243" c_rotation="180" c_mirror="0" id="gge1368" layerid="3" c_shapetype="group" ><path c_fontSize="3" c_fontFamily="" c_text="37" d="M 4137.27 3241.36 L 4138.77 3241.36 L 4137.95 3242.45 L 4138.36 3242.45 L 4138.64 3242.59 L 4138.77 3242.73 L 4138.91 3243.14 L 4138.91 3243.41 L 4138.77 3243.82 L 4138.5 3244.09 L 4138.09 3244.23 L 4137.68 3244.23 L 4137.27 3244.09 L 4137.14 3243.95 L 4137 3243.68 M 4141.72 3241.36 L 4140.35 3244.23 M 4139.81 3241.36 L 4141.72 3241.36" fill="none"  stroke-width="0.4"  /></g><g c_partid="part_pcbtext" c_origin="4137,3233" c_rotation="180" c_mirror="0" id="gge1374" layerid="3" c_shapetype="group" ><path c_fontSize="3" c_fontFamily="" c_text="38" d="M 4137.27 3231.36 L 4138.77 3231.36 L 4137.95 3232.45 L 4138.36 3232.45 L 4138.64 3232.59 L 4138.77 3232.73 L 4138.91 3233.14 L 4138.91 3233.41 L 4138.77 3233.82 L 4138.5 3234.09 L 4138.09 3234.23 L 4137.68 3234.23 L 4137.27 3234.09 L 4137.14 3233.95 L 4137 3233.68 M 4140.49 3231.36 L 4140.08 3231.5 L 4139.95 3231.77 L 4139.95 3232.05 L 4140.08 3232.32 L 4140.35 3232.45 L 4140.9 3232.59 L 4141.31 3232.73 L 4141.58 3233 L 4141.72 3233.27 L 4141.72 3233.68 L 4141.58 3233.95 L 4141.45 3234.09 L 4141.04 3234.23 L 4140.49 3234.23 L 4140.08 3234.09 L 4139.95 3233.95 L 4139.81 3233.68 L 4139.81 3233.27 L 4139.95 3233 L 4140.22 3232.73 L 4140.63 3232.59 L 4141.17 3232.45 L 4141.45 3232.32 L 4141.58 3232.05 L 4141.58 3231.77 L 4141.45 3231.5 L 4141.04 3231.36 L 4140.49 3231.36" fill="none"  stroke-width="0.4"  /></g><g c_partid="part_pcbtext" c_origin="4137,3223" c_rotation="180" c_mirror="0" id="gge1380" layerid="3" c_shapetype="group" ><path c_fontSize="3" c_fontFamily="" c_text="39" d="M 4137.27 3221.36 L 4138.77 3221.36 L 4137.95 3222.45 L 4138.36 3222.45 L 4138.64 3222.59 L 4138.77 3222.73 L 4138.91 3223.14 L 4138.91 3223.41 L 4138.77 3223.82 L 4138.5 3224.09 L 4138.09 3224.23 L 4137.68 3224.23 L 4137.27 3224.09 L 4137.14 3223.95 L 4137 3223.68 M 4141.58 3222.32 L 4141.45 3222.73 L 4141.17 3223 L 4140.76 3223.14 L 4140.63 3223.14 L 4140.22 3223 L 4139.95 3222.73 L 4139.81 3222.32 L 4139.81 3222.18 L 4139.95 3221.77 L 4140.22 3221.5 L 4140.63 3221.36 L 4140.76 3221.36 L 4141.17 3221.5 L 4141.45 3221.77 L 4141.58 3222.32 L 4141.58 3223 L 4141.45 3223.68 L 4141.17 3224.09 L 4140.76 3224.23 L 4140.49 3224.23 L 4140.08 3224.09 L 4139.95 3223.82" fill="none"  stroke-width="0.4"  /></g><g c_partid="part_pcbtext" c_origin="4137,3213" c_rotation="180" c_mirror="0" id="gge1386" layerid="3" c_shapetype="group" ><path c_fontSize="3" c_fontFamily="" c_text="DAC0" d="M 4137 3211.36 L 4137 3214.23 M 4137 3211.36 L 4137.95 3211.36 L 4138.36 3211.5 L 4138.64 3211.77 L 4138.77 3212.05 L 4138.91 3212.45 L 4138.91 3213.14 L 4138.77 3213.55 L 4138.64 3213.82 L 4138.36 3214.09 L 4137.95 3214.23 L 4137 3214.23 M 4140.9 3211.36 L 4139.81 3214.23 M 4140.9 3211.36 L 4141.99 3214.23 M 4140.22 3213.27 L 4141.58 3213.27 M 4144.94 3212.05 L 4144.8 3211.77 L 4144.53 3211.5 L 4144.25 3211.36 L 4143.71 3211.36 L 4143.44 3211.5 L 4143.16 3211.77 L 4143.03 3212.05 L 4142.89 3212.45 L 4142.89 3213.14 L 4143.03 3213.55 L 4143.16 3213.82 L 4143.44 3214.09 L 4143.71 3214.23 L 4144.25 3214.23 L 4144.53 3214.09 L 4144.8 3213.82 L 4144.94 3213.55 M 4146.65 3211.36 L 4146.25 3211.5 L 4145.97 3211.91 L 4145.84 3212.59 L 4145.84 3213 L 4145.97 3213.68 L 4146.25 3214.09 L 4146.65 3214.23 L 4146.93 3214.23 L 4147.34 3214.09 L 4147.61 3213.68 L 4147.75 3213 L 4147.75 3212.59 L 4147.61 3211.91 L 4147.34 3211.5 L 4146.93 3211.36 L 4146.65 3211.36" fill="none"  stroke-width="0.4"  /></g><g c_partid="part_pcbtext" c_origin="4137,3203" c_rotation="180" c_mirror="0" id="gge1392" layerid="3" c_shapetype="group" ><path c_fontSize="3" c_fontFamily="" c_text="DAC1" d="M 4137 3201.36 L 4137 3204.23 M 4137 3201.36 L 4137.95 3201.36 L 4138.36 3201.5 L 4138.64 3201.77 L 4138.77 3202.05 L 4138.91 3202.45 L 4138.91 3203.14 L 4138.77 3203.55 L 4138.64 3203.82 L 4138.36 3204.09 L 4137.95 3204.23 L 4137 3204.23 M 4140.9 3201.36 L 4139.81 3204.23 M 4140.9 3201.36 L 4141.99 3204.23 M 4140.22 3203.27 L 4141.58 3203.27 M 4144.94 3202.05 L 4144.8 3201.77 L 4144.53 3201.5 L 4144.25 3201.36 L 4143.71 3201.36 L 4143.44 3201.5 L 4143.16 3201.77 L 4143.03 3202.05 L 4142.89 3202.45 L 4142.89 3203.14 L 4143.03 3203.55 L 4143.16 3203.82 L 4143.44 3204.09 L 4143.71 3204.23 L 4144.25 3204.23 L 4144.53 3204.09 L 4144.8 3203.82 L 4144.94 3203.55 M 4145.84 3201.91 L 4146.11 3201.77 L 4146.52 3201.36 L 4146.52 3204.23" fill="none"  stroke-width="0.4"  /></g><g c_partid="part_pcbtext" c_origin="4137,3193" c_rotation="180" c_mirror="0" id="gge1398" layerid="3" c_shapetype="group" ><path c_fontSize="3" c_fontFamily="" c_text="GND" d="M 4139.05 3192.05 L 4138.91 3191.77 L 4138.64 3191.5 L 4138.36 3191.36 L 4137.82 3191.36 L 4137.55 3191.5 L 4137.27 3191.77 L 4137.14 3192.05 L 4137 3192.45 L 4137 3193.14 L 4137.14 3193.55 L 4137.27 3193.82 L 4137.55 3194.09 L 4137.82 3194.23 L 4138.36 3194.23 L 4138.64 3194.09 L 4138.91 3193.82 L 4139.05 3193.55 L 4139.05 3193.14 M 4138.36 3193.14 L 4139.05 3193.14 M 4139.95 3191.36 L 4139.95 3194.23 M 4139.95 3191.36 L 4141.85 3194.23 M 4141.85 3191.36 L 4141.85 3194.23 M 4142.75 3191.36 L 4142.75 3194.23 M 4142.75 3191.36 L 4143.71 3191.36 L 4144.12 3191.5 L 4144.39 3191.77 L 4144.53 3192.05 L 4144.66 3192.45 L 4144.66 3193.14 L 4144.53 3193.55 L 4144.39 3193.82 L 4144.12 3194.09 L 4143.71 3194.23 L 4142.75 3194.23" fill="none"  stroke-width="0.4"  /></g><path d="M 4102 3220 A 4 4 0 0 1 4102 3228" c_shapetype="line" fill="none" stroke-width="1" c_helper_type="arc2" net="S$192" layerid="3" id="gge366" /><path d="M 4098 3228 A 4 4 0 0 1 4098 3220" c_shapetype="line" fill="none" stroke-width="1" c_helper_type="arc2" net="S$192" layerid="3" id="gge369" /><path d="M 4074 3286 L 4074 3278 L 4078 3278 L 4078 3286 Z" stroke-width="0"  c_shapetype="line" net="" type="solid" layerid="3" id="gge297" locked="0" c_teardrop="" c_targetpad="" c_targetwire="" /><path d="M 4122 3286 L 4122 3278 L 4126 3278 L 4126 3286 Z" stroke-width="0"  c_shapetype="line" net="" type="solid" layerid="3" id="gge300" locked="0" c_teardrop="" c_targetpad="" c_targetwire="" /><path d="M 4074 3254 L 4074 3246 L 4077 3246 L 4077 3254 Z" stroke-width="0"  c_shapetype="line" net="" type="solid" layerid="3" id="gge303" locked="0" c_teardrop="" c_targetpad="" c_targetwire="" /><path d="M 4123 3245 L 4123 3237 L 4126 3237 L 4126 3245 Z" stroke-width="0"  c_shapetype="line" net="" type="solid" layerid="3" id="gge306" locked="0" c_teardrop="" c_targetpad="" c_targetwire="" /><path d="M 4115 3286 L 4115 3279 L 4117 3279 L 4117 3286 Z" stroke-width="0"  c_shapetype="line" net="" type="solid" layerid="3" id="gge309" locked="0" c_teardrop="" c_targetpad="" c_targetwire="" /><path d="M 4080 3286 L 4080 3279 L 4082 3279 L 4082 3286 Z" stroke-width="0"  c_shapetype="line" net="" type="solid" layerid="3" id="gge312" locked="0" c_teardrop="" c_targetpad="" c_targetwire="" /><path d="M 4085 3286 L 4085 3279 L 4087 3279 L 4087 3286 Z" stroke-width="0"  c_shapetype="line" net="" type="solid" layerid="3" id="gge315" locked="0" c_teardrop="" c_targetpad="" c_targetwire="" /><path d="M 4090 3286 L 4090 3279 L 4091.6 3279 L 4091.6 3286 Z" stroke-width="0"  c_shapetype="line" net="" type="solid" layerid="3" id="gge318" locked="0" c_teardrop="" c_targetpad="" c_targetwire="" /><path d="M 4100 3286 L 4100 3279 L 4102 3279 L 4102 3286 Z" stroke-width="0"  c_shapetype="line" net="" type="solid" layerid="3" id="gge321" locked="0" c_teardrop="" c_targetpad="" c_targetwire="" /><path d="M 4105 3286 L 4105 3279 L 4107 3279 L 4107 3286 Z" stroke-width="0"  c_shapetype="line" net="" type="solid" layerid="3" id="gge324" locked="0" c_teardrop="" c_targetpad="" c_targetwire="" /><path d="M 4110 3286 L 4110 3279 L 4112 3279 L 4112 3286 Z" stroke-width="0"  c_shapetype="line" net="" type="solid" layerid="3" id="gge327" locked="0" c_teardrop="" c_targetpad="" c_targetwire="" /><path d="M 4095 3286 L 4095 3279 L 4097 3279 L 4097 3286 Z" stroke-width="0"  c_shapetype="line" net="" type="solid" layerid="3" id="gge330" locked="0" c_teardrop="" c_targetpad="" c_targetwire="" /><path d="M 4098.5 3054 L 4092.5 3054 L 4092.5 3048.5 L 4098.5 3048.5 Z" stroke-width="0"  c_shapetype="line" net="" type="solid" layerid="3" id="gge333" locked="0" c_teardrop="" c_targetpad="" c_targetwire="" /><path d="M 4106 3054 L 4100 3054 L 4100 3048.5 L 4106 3048.5 Z" stroke-width="0"  c_shapetype="line" net="" type="solid" layerid="3" id="gge336" locked="0" c_teardrop="" c_targetpad="" c_targetwire="" /><path d="M 4114 3051.5 L 4114 3059.5 L 4109.5 3059.5 L 4109.5 3051.5 Z" stroke-width="0"  c_shapetype="line" net="" type="solid" layerid="3" id="gge339" locked="0" c_teardrop="" c_targetpad="" c_targetwire="" /><path d="M 4089 3051.5 L 4089 3059.5 L 4084.5 3059.5 L 4084.5 3051.5 Z" stroke-width="0"  c_shapetype="line" net="" type="solid" layerid="3" id="gge342" locked="0" c_teardrop="" c_targetpad="" c_targetwire="" /><path d="M 4089 3063 L 4089 3068 L 4082.5 3068 L 4082.5 3063 Z" stroke-width="0"  c_shapetype="line" net="" type="solid" layerid="3" id="gge345" locked="0" c_teardrop="" c_targetpad="" c_targetwire="" /><path d="M 4116 3063 L 4116 3068 L 4109.5 3068 L 4109.5 3063 Z" stroke-width="0"  c_shapetype="line" net="" type="solid" layerid="3" id="gge348" locked="0" c_teardrop="" c_targetpad="" c_targetwire="" /><path d="M 4095 3062.5 L 4095 3068.5 L 4093.5 3068.5 L 4093.5 3062.5 Z" stroke-width="0"  c_shapetype="line" net="" type="solid" layerid="3" id="gge351" locked="0" c_teardrop="" c_targetpad="" c_targetwire="" /><path d="M 4097.5 3062.5 L 4097.5 3068.5 L 4096 3068.5 L 4096 3062.5 Z" stroke-width="0"  c_shapetype="line" net="" type="solid" layerid="3" id="gge354" locked="0" c_teardrop="" c_targetpad="" c_targetwire="" /><path d="M 4100 3062.5 L 4100 3068.5 L 4098.5 3068.5 L 4098.5 3062.5 Z" stroke-width="0"  c_shapetype="line" net="" type="solid" layerid="3" id="gge357" locked="0" c_teardrop="" c_targetpad="" c_targetwire="" /><path d="M 4102.5 3062.5 L 4102.5 3068.5 L 4101 3068.5 L 4101 3062.5 Z" stroke-width="0"  c_shapetype="line" net="" type="solid" layerid="3" id="gge360" locked="0" c_teardrop="" c_targetpad="" c_targetwire="" /><path d="M 4105 3062.5 L 4105 3068.5 L 4103.5 3068.5 L 4103.5 3062.5 Z" stroke-width="0"  c_shapetype="line" net="" type="solid" layerid="3" id="gge363" locked="0" c_teardrop="" c_targetpad="" c_targetwire="" /><polyline points="4165 3048 4165 3383 4020 3383" stroke-width="1" c_shapetype="line" stroke-linecap="round" fill="none" layerid="10" net="" id="gge13105" /><polyline points="4020 3383 4020 3048.25" stroke-width="1" c_shapetype="line" stroke-linecap="round" fill="none" layerid="10" net="" id="gge13102" /><polyline points="4020 3048 4165 3048" stroke-width="1" c_shapetype="line" stroke-linecap="round" fill="none" layerid="10" net="" id="gge13108" /></g></svg>