<svg version="1.1" viewBox="0.0 0.0 960.0 720.0" fill="none" stroke="none" stroke-linecap="square" stroke-miterlimit="10" xmlns:xlink="http://www.w3.org/1999/xlink" xmlns="http://www.w3.org/2000/svg"><clipPath id="p.0"><path d="m0 0l960.0 0l0 720.0l-960.0 0l0 -720.0z" clip-rule="nonzero"/></clipPath><g clip-path="url(#p.0)"><path fill="#000000" fill-opacity="0.0" d="m0 0l960.0 0l0 720.0l-960.0 0z" fill-rule="evenodd"/><path fill="#000000" fill-opacity="0.0" d="m145.0315 246.8819l739.40155 0l0 226.2362l-739.40155 0z" fill-rule="evenodd"/><path fill="#000000" d="m259.0315 365.64377q0 16.75 -5.796875 29.421875q-5.796875 12.65625 -16.546875 19.5q-10.75 6.828125 -24.828125 6.828125q-21.25 0 -34.328125 -15.203125q-13.078125 -15.21875 -13.078125 -41.046875l0 -12.5q0 -16.578125 5.875 -29.375q5.875 -12.796875 16.609375 -19.671875q10.75 -6.875 24.75 -6.875q14.0 0 24.703125 6.75q10.71875 6.75 16.546875 19.09375q5.84375 12.328125 6.09375 28.578125l0 14.5zm-10.25 -13.171875q0 -21.90625 -9.921875 -34.328125q-9.921875 -12.421875 -27.171875 -12.421875q-16.90625 0 -26.953125 12.46875q-10.03125 12.453125 -10.03125 34.78125l0 12.671875q0 21.578125 10.0 34.203125q10.0 12.625 27.15625 12.625q17.421875 0 27.171875 -12.453125q9.75 -12.46875 9.75 -34.703125l0 -12.84375zm61.821075 53.5l27.421875 -76.40625l10.25 0l-33.671875 90.15625l-8.078125 0l-33.828125 -90.15625l10.25 0l27.65625 76.40625zm87.82312 15.421875q-11.484375 0 -20.78125 -5.671875q-9.296875 -5.671875 -14.46875 -15.796875q-5.15625 -10.125 -5.15625 -22.703125l0 -3.578125q0 -13.0 5.03125 -23.40625q5.046875 -10.421875 14.046875 -16.375q9.0 -5.96875 19.5 -5.96875q16.421875 0 26.046875 11.21875q9.625 11.203125 9.625 30.609375l0 5.59375l-64.328125 0l0 1.90625q0 15.328125 8.78125 25.546875q8.796875 10.203125 22.125 10.203125q8.0 0 14.125 -2.90625q6.125 -2.921875 11.125 -9.34375l6.25 4.75q-11.0 15.921875 -31.921875 15.921875zm-1.828125 -85.0q-11.25 0 -18.953125 8.25q-7.703125 8.25 -9.375 22.171875l54.078125 0l0 -1.09375q-0.421875 -13.0 -7.421875 -21.15625q-7.0 -8.171875 -18.328125 -8.171875zm96.73941 1.671875q-3.15625 -0.59375 -6.75 -0.59375q-9.328125 0 -15.78125 5.21875q-6.453125 5.203125 -9.203125 15.125l0 61.90625l-9.921875 0l0 -90.15625l9.75 0l0.171875 14.328125q7.90625 -16.0 25.40625 -16.0q4.171875 0 6.578125 1.078125l-0.25 9.09375zm85.08502 23.5l-56.75 0l0 49.484375l65.25 0l0 8.671875l-75.5 0l0 -121.328125l75.078125 0l0 8.75l-64.828125 0l0 45.75l56.75 0l0 8.671875zm84.65552 58.15625q-1.5 -4.25 -1.90625 -12.578125q-5.25 6.828125 -13.375 10.546875q-8.125 3.703125 -17.203125 3.703125q-13.0 0 -21.046875 -7.25q-8.046875 -7.25 -8.046875 -18.34375q0 -13.15625 10.953125 -20.8125q10.96875 -7.671875 30.546875 -7.671875l18.078125 0l0 -10.25q0 -9.671875 -5.953125 -15.203125q-5.953125 -5.546875 -17.375 -5.546875q-10.40625 0 -17.25 5.328125q-6.828125 5.328125 -6.828125 12.828125l-10.0 -0.078125q0 -10.75 10.0 -18.625q10.0 -7.875 24.578125 -7.875q15.078125 0 23.78125 7.546875q8.71875 7.53125 8.96875 21.03125l0 42.671875q0 13.078125 2.75 19.578125l0 1.0l-10.671875 0zm-31.328125 -7.171875q10.0 0 17.875 -4.828125q7.875 -4.828125 11.453125 -12.921875l0 -19.828125l-17.828125 0q-14.90625 0.171875 -23.328125 5.46875q-8.421875 5.28125 -8.421875 14.53125q0 7.578125 5.625 12.578125q5.625 5.0 14.625 5.0zm107.4892 -74.484375q-3.15625 -0.59375 -6.75 -0.59375q-9.328125 0 -15.78125 5.21875q-6.453125 5.203125 -9.203125 15.125l0 61.90625l-9.921875 0l0 -90.15625l9.75 0l0.171875 14.328125q7.90625 -16.0 25.40625 -16.0q4.171875 0 6.578125 1.078125l-0.25 9.09375z" fill-rule="nonzero"/></g></svg>